G04 #@! TF.GenerationSoftware,KiCad,Pcbnew,(5.1.5-0-10_14)*
G04 #@! TF.CreationDate,2021-03-05T21:15:02+01:00*
G04 #@! TF.ProjectId,RCA2020-Mk1,52434132-3032-4302-9d4d-6b312e6b6963,4*
G04 #@! TF.SameCoordinates,Original*
G04 #@! TF.FileFunction,Copper,L2,Bot*
G04 #@! TF.FilePolarity,Positive*
%FSLAX46Y46*%
G04 Gerber Fmt 4.6, Leading zero omitted, Abs format (unit mm)*
G04 Created by KiCad (PCBNEW (5.1.5-0-10_14)) date 2021-03-05 21:15:02*
%MOMM*%
%LPD*%
G04 APERTURE LIST*
%ADD10O,1.600000X1.600000*%
%ADD11R,1.600000X1.600000*%
%ADD12R,1.498600X1.498600*%
%ADD13C,1.498600*%
%ADD14O,1.050000X1.500000*%
%ADD15R,1.050000X1.500000*%
%ADD16C,0.100000*%
%ADD17R,1.600000X3.100000*%
%ADD18C,1.600000*%
%ADD19C,3.000000*%
%ADD20R,3.000000X3.000000*%
%ADD21C,3.500000*%
%ADD22C,1.700000*%
%ADD23R,1.700000X1.700000*%
%ADD24O,1.700000X1.700000*%
%ADD25C,1.500000*%
%ADD26C,1.000000*%
%ADD27C,0.800000*%
%ADD28C,0.300000*%
%ADD29C,0.500000*%
%ADD30C,0.250000*%
G04 APERTURE END LIST*
D10*
X171450000Y-45720000D03*
X163830000Y-63500000D03*
X171450000Y-48260000D03*
X163830000Y-60960000D03*
X171450000Y-50800000D03*
X163830000Y-58420000D03*
X171450000Y-53340000D03*
X163830000Y-55880000D03*
X171450000Y-55880000D03*
X163830000Y-53340000D03*
X171450000Y-58420000D03*
X163830000Y-50800000D03*
X171450000Y-60960000D03*
X163830000Y-48260000D03*
X171450000Y-63500000D03*
D11*
X163830000Y-45720000D03*
D12*
X114046000Y-45720000D03*
D13*
X114046000Y-50220001D03*
X120396000Y-50292000D03*
X120396000Y-45720000D03*
D14*
X125730000Y-132080000D03*
X127254000Y-132080000D03*
D15*
X124206000Y-132080000D03*
G04 #@! TA.AperFunction,ViaPad*
D16*
G36*
X129098414Y-39243851D02*
G01*
X129176072Y-39255371D01*
X129252228Y-39274447D01*
X129326147Y-39300895D01*
X129397117Y-39334462D01*
X129464456Y-39374823D01*
X129527515Y-39421591D01*
X129585685Y-39474314D01*
X129638408Y-39532484D01*
X129685176Y-39595543D01*
X129725537Y-39662882D01*
X129759104Y-39733852D01*
X129785552Y-39807771D01*
X129804628Y-39883927D01*
X129816148Y-39961585D01*
X129820000Y-40039999D01*
X129820000Y-40040001D01*
X129816148Y-40118415D01*
X129804628Y-40196073D01*
X129785552Y-40272229D01*
X129759104Y-40346148D01*
X129725537Y-40417118D01*
X129685176Y-40484457D01*
X129638408Y-40547516D01*
X129585685Y-40605686D01*
X129527515Y-40658409D01*
X129464456Y-40705177D01*
X129397117Y-40745538D01*
X129326147Y-40779105D01*
X129252228Y-40805553D01*
X129176072Y-40824629D01*
X129098414Y-40836149D01*
X129020000Y-40840001D01*
X127520000Y-40840001D01*
X127441586Y-40836149D01*
X127363928Y-40824629D01*
X127287772Y-40805553D01*
X127213853Y-40779105D01*
X127142883Y-40745538D01*
X127075544Y-40705177D01*
X127012485Y-40658409D01*
X126954315Y-40605686D01*
X126901592Y-40547516D01*
X126854824Y-40484457D01*
X126814463Y-40417118D01*
X126780896Y-40346148D01*
X126754448Y-40272229D01*
X126735372Y-40196073D01*
X126723852Y-40118415D01*
X126720000Y-40040001D01*
X126720000Y-40039999D01*
X126723852Y-39961585D01*
X126735372Y-39883927D01*
X126754448Y-39807771D01*
X126780896Y-39733852D01*
X126814463Y-39662882D01*
X126854824Y-39595543D01*
X126901592Y-39532484D01*
X126954315Y-39474314D01*
X127012485Y-39421591D01*
X127075544Y-39374823D01*
X127142883Y-39334462D01*
X127213853Y-39300895D01*
X127287772Y-39274447D01*
X127363928Y-39255371D01*
X127441586Y-39243851D01*
X127520000Y-39239999D01*
X129020000Y-39239999D01*
X129098414Y-39243851D01*
G37*
G04 #@! TD.AperFunction*
G04 #@! TA.AperFunction,ViaPad*
G36*
X130248415Y-35493852D02*
G01*
X130326073Y-35505372D01*
X130402229Y-35524448D01*
X130476148Y-35550896D01*
X130547118Y-35584463D01*
X130614457Y-35624824D01*
X130677516Y-35671592D01*
X130735686Y-35724315D01*
X130788409Y-35782485D01*
X130835177Y-35845544D01*
X130875538Y-35912883D01*
X130909105Y-35983853D01*
X130935553Y-36057772D01*
X130954629Y-36133928D01*
X130966149Y-36211586D01*
X130970001Y-36290000D01*
X130970001Y-37790000D01*
X130966149Y-37868414D01*
X130954629Y-37946072D01*
X130935553Y-38022228D01*
X130909105Y-38096147D01*
X130875538Y-38167117D01*
X130835177Y-38234456D01*
X130788409Y-38297515D01*
X130735686Y-38355685D01*
X130677516Y-38408408D01*
X130614457Y-38455176D01*
X130547118Y-38495537D01*
X130476148Y-38529104D01*
X130402229Y-38555552D01*
X130326073Y-38574628D01*
X130248415Y-38586148D01*
X130170001Y-38590000D01*
X130169999Y-38590000D01*
X130091585Y-38586148D01*
X130013927Y-38574628D01*
X129937771Y-38555552D01*
X129863852Y-38529104D01*
X129792882Y-38495537D01*
X129725543Y-38455176D01*
X129662484Y-38408408D01*
X129604314Y-38355685D01*
X129551591Y-38297515D01*
X129504823Y-38234456D01*
X129464462Y-38167117D01*
X129430895Y-38096147D01*
X129404447Y-38022228D01*
X129385371Y-37946072D01*
X129373851Y-37868414D01*
X129369999Y-37790000D01*
X129369999Y-36290000D01*
X129373851Y-36211586D01*
X129385371Y-36133928D01*
X129404447Y-36057772D01*
X129430895Y-35983853D01*
X129464462Y-35912883D01*
X129504823Y-35845544D01*
X129551591Y-35782485D01*
X129604314Y-35724315D01*
X129662484Y-35671592D01*
X129725543Y-35624824D01*
X129792882Y-35584463D01*
X129863852Y-35550896D01*
X129937771Y-35524448D01*
X130013927Y-35505372D01*
X130091585Y-35493852D01*
X130169999Y-35490000D01*
X130170001Y-35490000D01*
X130248415Y-35493852D01*
G37*
G04 #@! TD.AperFunction*
D17*
X126370000Y-37040000D03*
D10*
X88900000Y-60960000D03*
X81280000Y-76200000D03*
X88900000Y-63500000D03*
X81280000Y-73660000D03*
X88900000Y-66040000D03*
X81280000Y-71120000D03*
X88900000Y-68580000D03*
X81280000Y-68580000D03*
X88900000Y-71120000D03*
X81280000Y-66040000D03*
X88900000Y-73660000D03*
X81280000Y-63500000D03*
X88900000Y-76200000D03*
D11*
X81280000Y-60960000D03*
D10*
X93980000Y-71120000D03*
D18*
X93980000Y-60960000D03*
D19*
X88900000Y-36830000D03*
D20*
X83820000Y-36830000D03*
D21*
X108870000Y-39740000D03*
X96830000Y-39740000D03*
D22*
X101600000Y-42450000D03*
X104100000Y-42450000D03*
X104100000Y-44450000D03*
D23*
X101600000Y-44450000D03*
D11*
X88900000Y-46990000D03*
D18*
X91400000Y-46990000D03*
X142240000Y-55880000D03*
X139740000Y-55880000D03*
X149820000Y-55880000D03*
X147320000Y-55880000D03*
D11*
X125730000Y-67310000D03*
D18*
X127730000Y-67310000D03*
X170910000Y-39370000D03*
D11*
X168910000Y-39370000D03*
X114300000Y-81280000D03*
D18*
X116300000Y-81280000D03*
X156940000Y-64770000D03*
D11*
X154940000Y-64770000D03*
D18*
X135350000Y-132080000D03*
D11*
X133350000Y-132080000D03*
D18*
X178530000Y-114300000D03*
D11*
X176530000Y-114300000D03*
D18*
X186690000Y-104140000D03*
X184190000Y-104140000D03*
X135350000Y-124460000D03*
D11*
X133350000Y-124460000D03*
X132080000Y-67310000D03*
D18*
X134080000Y-67310000D03*
X172180000Y-72390000D03*
D11*
X170180000Y-72390000D03*
X96520000Y-81280000D03*
D18*
X98520000Y-81280000D03*
D11*
X74930000Y-76200000D03*
D18*
X76930000Y-76200000D03*
X193770000Y-100330000D03*
D11*
X191770000Y-100330000D03*
D24*
X66040000Y-35560000D03*
X66040000Y-38100000D03*
X66040000Y-40640000D03*
X66040000Y-43180000D03*
X66040000Y-45720000D03*
X66040000Y-48260000D03*
X66040000Y-50800000D03*
X66040000Y-53340000D03*
X66040000Y-55880000D03*
X66040000Y-58420000D03*
X66040000Y-60960000D03*
X66040000Y-63500000D03*
X66040000Y-66040000D03*
X66040000Y-68580000D03*
X66040000Y-71120000D03*
X66040000Y-73660000D03*
X66040000Y-76200000D03*
X66040000Y-78740000D03*
X66040000Y-81280000D03*
X66040000Y-83820000D03*
X66040000Y-86360000D03*
X66040000Y-88900000D03*
X66040000Y-91440000D03*
X66040000Y-93980000D03*
X66040000Y-96520000D03*
X66040000Y-99060000D03*
X66040000Y-101600000D03*
X66040000Y-104140000D03*
X66040000Y-106680000D03*
X66040000Y-109220000D03*
X66040000Y-111760000D03*
X66040000Y-114300000D03*
X66040000Y-116840000D03*
X66040000Y-119380000D03*
X66040000Y-121920000D03*
X66040000Y-124460000D03*
X66040000Y-127000000D03*
X66040000Y-129540000D03*
X66040000Y-132080000D03*
D23*
X66040000Y-134620000D03*
X205740000Y-35560000D03*
D24*
X205740000Y-38100000D03*
X205740000Y-40640000D03*
X205740000Y-43180000D03*
X205740000Y-45720000D03*
X205740000Y-48260000D03*
X205740000Y-50800000D03*
X205740000Y-53340000D03*
X205740000Y-55880000D03*
X205740000Y-58420000D03*
X205740000Y-60960000D03*
X205740000Y-63500000D03*
X205740000Y-66040000D03*
X205740000Y-68580000D03*
X205740000Y-71120000D03*
X205740000Y-73660000D03*
X205740000Y-76200000D03*
X205740000Y-78740000D03*
X205740000Y-81280000D03*
X205740000Y-83820000D03*
X205740000Y-86360000D03*
X205740000Y-88900000D03*
X205740000Y-91440000D03*
X205740000Y-93980000D03*
X205740000Y-96520000D03*
X205740000Y-99060000D03*
X205740000Y-101600000D03*
X205740000Y-104140000D03*
X205740000Y-106680000D03*
X205740000Y-109220000D03*
X205740000Y-111760000D03*
X205740000Y-114300000D03*
X205740000Y-116840000D03*
X205740000Y-119380000D03*
X205740000Y-121920000D03*
X205740000Y-124460000D03*
X205740000Y-127000000D03*
X205740000Y-129540000D03*
X205740000Y-132080000D03*
X205740000Y-134620000D03*
X107950000Y-81280000D03*
D23*
X105410000Y-81280000D03*
X113030000Y-66040000D03*
D24*
X113030000Y-68580000D03*
X113030000Y-71120000D03*
X119380000Y-71120000D03*
X119380000Y-68580000D03*
D23*
X119380000Y-66040000D03*
X163830000Y-36830000D03*
D24*
X163830000Y-39370000D03*
X167640000Y-111760000D03*
D23*
X165100000Y-111760000D03*
D24*
X179070000Y-106680000D03*
D23*
X179070000Y-104140000D03*
D24*
X175260000Y-106680000D03*
D23*
X175260000Y-104140000D03*
X171450000Y-104140000D03*
D24*
X171450000Y-106680000D03*
D18*
X128270000Y-49530000D03*
D10*
X128270000Y-59690000D03*
X149860000Y-59690000D03*
D18*
X139700000Y-59690000D03*
D10*
X132080000Y-59690000D03*
D18*
X132080000Y-49530000D03*
D10*
X76200000Y-71120000D03*
D18*
X76200000Y-60960000D03*
X123190000Y-55880000D03*
D10*
X113030000Y-55880000D03*
X113030000Y-59690000D03*
D18*
X123190000Y-59690000D03*
X175260000Y-39370000D03*
D10*
X185420000Y-39370000D03*
D18*
X157480000Y-106680000D03*
D10*
X167640000Y-106680000D03*
D18*
X181610000Y-134620000D03*
D10*
X191770000Y-134620000D03*
X191770000Y-130810000D03*
D18*
X181610000Y-130810000D03*
D10*
X157480000Y-81280000D03*
X157480000Y-78740000D03*
X157480000Y-76200000D03*
X157480000Y-73660000D03*
D11*
X157480000Y-71120000D03*
X157480000Y-121920000D03*
D10*
X157480000Y-119380000D03*
X157480000Y-116840000D03*
X157480000Y-114300000D03*
X157480000Y-111760000D03*
D11*
X137160000Y-71120000D03*
D10*
X152400000Y-119380000D03*
X137160000Y-73660000D03*
X152400000Y-116840000D03*
X137160000Y-76200000D03*
X152400000Y-114300000D03*
X137160000Y-78740000D03*
X152400000Y-111760000D03*
X137160000Y-81280000D03*
X152400000Y-109220000D03*
X137160000Y-83820000D03*
X152400000Y-106680000D03*
X137160000Y-86360000D03*
X152400000Y-104140000D03*
X137160000Y-88900000D03*
X152400000Y-101600000D03*
X137160000Y-91440000D03*
X152400000Y-99060000D03*
X137160000Y-93980000D03*
X152400000Y-96520000D03*
X137160000Y-96520000D03*
X152400000Y-93980000D03*
X137160000Y-99060000D03*
X152400000Y-91440000D03*
X137160000Y-101600000D03*
X152400000Y-88900000D03*
X137160000Y-104140000D03*
X152400000Y-86360000D03*
X137160000Y-106680000D03*
X152400000Y-83820000D03*
X137160000Y-109220000D03*
X152400000Y-81280000D03*
X137160000Y-111760000D03*
X152400000Y-78740000D03*
X137160000Y-114300000D03*
X152400000Y-76200000D03*
X137160000Y-116840000D03*
X152400000Y-73660000D03*
X137160000Y-119380000D03*
X152400000Y-71120000D03*
X106680000Y-60960000D03*
X99060000Y-76200000D03*
X106680000Y-63500000D03*
X99060000Y-73660000D03*
X106680000Y-66040000D03*
X99060000Y-71120000D03*
X106680000Y-68580000D03*
X99060000Y-68580000D03*
X106680000Y-71120000D03*
X99060000Y-66040000D03*
X106680000Y-73660000D03*
X99060000Y-63500000D03*
X106680000Y-76200000D03*
D11*
X99060000Y-60960000D03*
X76200000Y-81280000D03*
D10*
X91440000Y-119380000D03*
X76200000Y-83820000D03*
X91440000Y-116840000D03*
X76200000Y-86360000D03*
X91440000Y-114300000D03*
X76200000Y-88900000D03*
X91440000Y-111760000D03*
X76200000Y-91440000D03*
X91440000Y-109220000D03*
X76200000Y-93980000D03*
X91440000Y-106680000D03*
X76200000Y-96520000D03*
X91440000Y-104140000D03*
X76200000Y-99060000D03*
X91440000Y-101600000D03*
X76200000Y-101600000D03*
X91440000Y-99060000D03*
X76200000Y-104140000D03*
X91440000Y-96520000D03*
X76200000Y-106680000D03*
X91440000Y-93980000D03*
X76200000Y-109220000D03*
X91440000Y-91440000D03*
X76200000Y-111760000D03*
X91440000Y-88900000D03*
X76200000Y-114300000D03*
X91440000Y-86360000D03*
X76200000Y-116840000D03*
X91440000Y-83820000D03*
X76200000Y-119380000D03*
X91440000Y-81280000D03*
D11*
X99060000Y-86360000D03*
D10*
X114300000Y-119380000D03*
X99060000Y-88900000D03*
X114300000Y-116840000D03*
X99060000Y-91440000D03*
X114300000Y-114300000D03*
X99060000Y-93980000D03*
X114300000Y-111760000D03*
X99060000Y-96520000D03*
X114300000Y-109220000D03*
X99060000Y-99060000D03*
X114300000Y-106680000D03*
X99060000Y-101600000D03*
X114300000Y-104140000D03*
X99060000Y-104140000D03*
X114300000Y-101600000D03*
X99060000Y-106680000D03*
X114300000Y-99060000D03*
X99060000Y-109220000D03*
X114300000Y-96520000D03*
X99060000Y-111760000D03*
X114300000Y-93980000D03*
X99060000Y-114300000D03*
X114300000Y-91440000D03*
X99060000Y-116840000D03*
X114300000Y-88900000D03*
X99060000Y-119380000D03*
X114300000Y-86360000D03*
X129540000Y-78740000D03*
X121920000Y-96520000D03*
X129540000Y-81280000D03*
X121920000Y-93980000D03*
X129540000Y-83820000D03*
X121920000Y-91440000D03*
X129540000Y-86360000D03*
X121920000Y-88900000D03*
X129540000Y-88900000D03*
X121920000Y-86360000D03*
X129540000Y-91440000D03*
X121920000Y-83820000D03*
X129540000Y-93980000D03*
X121920000Y-81280000D03*
X129540000Y-96520000D03*
D11*
X121920000Y-78740000D03*
X121920000Y-101600000D03*
D10*
X129540000Y-119380000D03*
X121920000Y-104140000D03*
X129540000Y-116840000D03*
X121920000Y-106680000D03*
X129540000Y-114300000D03*
X121920000Y-109220000D03*
X129540000Y-111760000D03*
X121920000Y-111760000D03*
X129540000Y-109220000D03*
X121920000Y-114300000D03*
X129540000Y-106680000D03*
X121920000Y-116840000D03*
X129540000Y-104140000D03*
X121920000Y-119380000D03*
X129540000Y-101600000D03*
X116840000Y-134620000D03*
X99060000Y-127000000D03*
X114300000Y-134620000D03*
X101600000Y-127000000D03*
X111760000Y-134620000D03*
X104140000Y-127000000D03*
X109220000Y-134620000D03*
X106680000Y-127000000D03*
X106680000Y-134620000D03*
X109220000Y-127000000D03*
X104140000Y-134620000D03*
X111760000Y-127000000D03*
X101600000Y-134620000D03*
X114300000Y-127000000D03*
X99060000Y-134620000D03*
D11*
X116840000Y-127000000D03*
X163830000Y-81280000D03*
D10*
X171450000Y-96520000D03*
X163830000Y-83820000D03*
X171450000Y-93980000D03*
X163830000Y-86360000D03*
X171450000Y-91440000D03*
X163830000Y-88900000D03*
X171450000Y-88900000D03*
X163830000Y-91440000D03*
X171450000Y-86360000D03*
X163830000Y-93980000D03*
X171450000Y-83820000D03*
X163830000Y-96520000D03*
X171450000Y-81280000D03*
X185420000Y-45720000D03*
X177800000Y-68580000D03*
X185420000Y-48260000D03*
X177800000Y-66040000D03*
X185420000Y-50800000D03*
X177800000Y-63500000D03*
X185420000Y-53340000D03*
X177800000Y-60960000D03*
X185420000Y-55880000D03*
X177800000Y-58420000D03*
X185420000Y-58420000D03*
X177800000Y-55880000D03*
X185420000Y-60960000D03*
X177800000Y-53340000D03*
X185420000Y-63500000D03*
X177800000Y-50800000D03*
X185420000Y-66040000D03*
X177800000Y-48260000D03*
X185420000Y-68580000D03*
D11*
X177800000Y-45720000D03*
X177800000Y-73660000D03*
D10*
X185420000Y-96520000D03*
X177800000Y-76200000D03*
X185420000Y-93980000D03*
X177800000Y-78740000D03*
X185420000Y-91440000D03*
X177800000Y-81280000D03*
X185420000Y-88900000D03*
X177800000Y-83820000D03*
X185420000Y-86360000D03*
X177800000Y-86360000D03*
X185420000Y-83820000D03*
X177800000Y-88900000D03*
X185420000Y-81280000D03*
X177800000Y-91440000D03*
X185420000Y-78740000D03*
X177800000Y-93980000D03*
X185420000Y-76200000D03*
X177800000Y-96520000D03*
X185420000Y-73660000D03*
X157480000Y-134620000D03*
X142240000Y-127000000D03*
X154940000Y-134620000D03*
X144780000Y-127000000D03*
X152400000Y-134620000D03*
X147320000Y-127000000D03*
X149860000Y-134620000D03*
X149860000Y-127000000D03*
X147320000Y-134620000D03*
X152400000Y-127000000D03*
X144780000Y-134620000D03*
X154940000Y-127000000D03*
X142240000Y-134620000D03*
D11*
X157480000Y-127000000D03*
D25*
X142240000Y-64770000D03*
X147120000Y-64770000D03*
D26*
X184150000Y-109220000D03*
X184150000Y-107320000D03*
X126203900Y-97013600D03*
X182925700Y-127635000D03*
D27*
X78398800Y-55354500D03*
X81102000Y-55638600D03*
X168669500Y-80054700D03*
X158815000Y-63259300D03*
X138600000Y-89639100D03*
X111710500Y-72946800D03*
X172967600Y-57244700D03*
X165760800Y-85884300D03*
X107408600Y-91837700D03*
X134102300Y-104496500D03*
X159992900Y-44468000D03*
X161227200Y-49433400D03*
X158474300Y-105508300D03*
X168493400Y-77681000D03*
X158264000Y-103875400D03*
X167645300Y-86010200D03*
X141686700Y-118499200D03*
X173850200Y-122691500D03*
X153685200Y-89607300D03*
X150430200Y-92742100D03*
X143658400Y-126055900D03*
X173340400Y-123651100D03*
X158186400Y-54569900D03*
X120615100Y-80540300D03*
X140502000Y-47372000D03*
X115816400Y-112835400D03*
X101462600Y-63862200D03*
X169609400Y-87677100D03*
X160406700Y-132715100D03*
X176443300Y-108738200D03*
X164654300Y-122555000D03*
D28*
X121920000Y-92690300D02*
X122477400Y-92690300D01*
X122477400Y-92690300D02*
X126203900Y-96416800D01*
X126203900Y-96416800D02*
X126203900Y-97013600D01*
X121920000Y-114300000D02*
X121920000Y-113049700D01*
X129540000Y-101600000D02*
X129540000Y-102850300D01*
X129540000Y-102850300D02*
X128992900Y-102850300D01*
X128992900Y-102850300D02*
X128289700Y-103553500D01*
X128289700Y-103553500D02*
X128289700Y-107198100D01*
X128289700Y-107198100D02*
X122438100Y-113049700D01*
X122438100Y-113049700D02*
X121920000Y-113049700D01*
X163830000Y-81280000D02*
X157409600Y-87700400D01*
X157409600Y-87700400D02*
X157409600Y-106609600D01*
X157409600Y-106609600D02*
X157480000Y-106680000D01*
X121920000Y-91440000D02*
X121920000Y-92690300D01*
X137160000Y-109220000D02*
X137160000Y-110470300D01*
X137160000Y-110470300D02*
X137707000Y-110470300D01*
X137707000Y-110470300D02*
X138432800Y-111196100D01*
X138432800Y-111196100D02*
X138432800Y-117340600D01*
X138432800Y-117340600D02*
X137683000Y-118090400D01*
X137683000Y-118090400D02*
X136681200Y-118090400D01*
X136681200Y-118090400D02*
X133350000Y-121421600D01*
X133350000Y-121421600D02*
X133350000Y-124460000D01*
X170180000Y-72390000D02*
X170180000Y-73640300D01*
X171450000Y-81280000D02*
X171450000Y-74910300D01*
X171450000Y-74910300D02*
X170180000Y-73640300D01*
X157480000Y-127000000D02*
X157480000Y-134620000D01*
X157480000Y-121920000D02*
X157480000Y-127000000D01*
X106680000Y-62210300D02*
X107198100Y-62210300D01*
X107198100Y-62210300D02*
X110355900Y-65368100D01*
X110355900Y-65368100D02*
X110355900Y-76085600D01*
X110355900Y-76085600D02*
X114300000Y-80029700D01*
X132080000Y-67310000D02*
X132080000Y-68560300D01*
X132080000Y-68560300D02*
X129540000Y-71100300D01*
X129540000Y-71100300D02*
X129540000Y-78740000D01*
X168910000Y-39370000D02*
X168910000Y-40620300D01*
X163830000Y-45720000D02*
X163830000Y-44469700D01*
X163830000Y-44469700D02*
X167679400Y-40620300D01*
X167679400Y-40620300D02*
X168910000Y-40620300D01*
X114300000Y-81280000D02*
X114300000Y-80029700D01*
X114300000Y-86360000D02*
X114300000Y-81280000D01*
X106680000Y-60960000D02*
X106680000Y-62210300D01*
X123190000Y-59690000D02*
X123190000Y-55880000D01*
X114300000Y-86360000D02*
X114300000Y-88900000D01*
X88900000Y-46990000D02*
X88900000Y-60960000D01*
X123190000Y-55880000D02*
X123190000Y-54610000D01*
X123190000Y-54610000D02*
X128270000Y-49530000D01*
X127254000Y-132080000D02*
X127254000Y-130879700D01*
X133350000Y-124460000D02*
X133350000Y-125710300D01*
X133350000Y-125710300D02*
X128180600Y-130879700D01*
X128180600Y-130879700D02*
X127254000Y-130879700D01*
X205740000Y-119380000D02*
X193770000Y-107410000D01*
X193770000Y-107410000D02*
X193770000Y-100330000D01*
X135350000Y-130770800D02*
X135350000Y-132080000D01*
X138326300Y-127773400D02*
X135350000Y-130749700D01*
X135350000Y-130749700D02*
X135350000Y-130770800D01*
X135350000Y-130770800D02*
X131664100Y-130770800D01*
X131664100Y-130770800D02*
X129154600Y-133280300D01*
X129154600Y-133280300D02*
X125730000Y-133280300D01*
X125730000Y-132080000D02*
X125730000Y-133280300D01*
X135350000Y-124460000D02*
X135350000Y-124797100D01*
X135350000Y-124797100D02*
X138326300Y-127773400D01*
X138326300Y-127773400D02*
X140216300Y-127773400D01*
X140216300Y-127773400D02*
X140989700Y-127000000D01*
X81952300Y-51323200D02*
X79154800Y-51323200D01*
X66040000Y-38208400D02*
X66040000Y-38100000D01*
X81280000Y-59709700D02*
X81952300Y-59037400D01*
X81952300Y-59037400D02*
X81952300Y-51323200D01*
X91400000Y-45738700D02*
X87536800Y-45738700D01*
X87536800Y-45738700D02*
X81952300Y-51323200D01*
X178530000Y-114300000D02*
X182925700Y-118695700D01*
X182925700Y-118695700D02*
X182925700Y-127635000D01*
X178530000Y-114300000D02*
X178530000Y-109800000D01*
X178530000Y-109800000D02*
X184190000Y-104140000D01*
X137160000Y-120630300D02*
X135350000Y-122440300D01*
X135350000Y-122440300D02*
X135350000Y-124460000D01*
X142240000Y-127000000D02*
X140989700Y-127000000D01*
X99060000Y-119380000D02*
X100310300Y-119380000D01*
X121920000Y-119380000D02*
X120669700Y-119380000D01*
X120669700Y-119380000D02*
X119419300Y-120630400D01*
X119419300Y-120630400D02*
X101560700Y-120630400D01*
X101560700Y-120630400D02*
X100310300Y-119380000D01*
X171450000Y-63500000D02*
X171450000Y-64750300D01*
X171450000Y-64750300D02*
X172180000Y-65480300D01*
X172180000Y-65480300D02*
X172180000Y-72390000D01*
X172180000Y-72390000D02*
X173439900Y-73649900D01*
X173439900Y-73649900D02*
X173439900Y-91427700D01*
X173439900Y-91427700D02*
X177281900Y-95269700D01*
X177281900Y-95269700D02*
X177800000Y-95269700D01*
X99060000Y-77450300D02*
X98520000Y-77990300D01*
X98520000Y-77990300D02*
X98520000Y-81280000D01*
X114046000Y-45720000D02*
X115245600Y-45720000D01*
X126188400Y-41818000D02*
X126188400Y-39221900D01*
X126188400Y-39221900D02*
X126370000Y-39040300D01*
X139740000Y-55880000D02*
X139740000Y-55369600D01*
X139740000Y-55369600D02*
X126188400Y-41818000D01*
X115245600Y-45720000D02*
X116445200Y-44520400D01*
X116445200Y-44520400D02*
X123486000Y-44520400D01*
X123486000Y-44520400D02*
X126188400Y-41818000D01*
X101600000Y-42450000D02*
X102944600Y-41105400D01*
X102944600Y-41105400D02*
X104609800Y-41105400D01*
X104609800Y-41105400D02*
X109224400Y-45720000D01*
X109224400Y-45720000D02*
X114046000Y-45720000D01*
X126370000Y-37040000D02*
X126370000Y-39040300D01*
X99060000Y-127000000D02*
X99060000Y-128250300D01*
X99060000Y-128250300D02*
X104140000Y-133330300D01*
X104140000Y-133330300D02*
X104140000Y-134620000D01*
X99060000Y-76200000D02*
X97809700Y-76200000D01*
X93980000Y-71745100D02*
X97809700Y-75574800D01*
X97809700Y-75574800D02*
X97809700Y-76200000D01*
X93980000Y-71745100D02*
X93980000Y-72370300D01*
X93980000Y-71120000D02*
X93980000Y-71745100D01*
X88900000Y-76200000D02*
X90150300Y-76200000D01*
X90150300Y-76200000D02*
X93980000Y-72370300D01*
X99060000Y-76200000D02*
X99060000Y-77450300D01*
X134080000Y-67310000D02*
X134080000Y-67066400D01*
X134080000Y-67066400D02*
X133073200Y-66059600D01*
X133073200Y-66059600D02*
X128980400Y-66059600D01*
X128980400Y-66059600D02*
X127730000Y-67310000D01*
X91400000Y-45738700D02*
X91400000Y-46990000D01*
X94600000Y-42530000D02*
X91400000Y-45730000D01*
X91400000Y-45730000D02*
X91400000Y-45738700D01*
X81280000Y-60960000D02*
X81280000Y-59709700D01*
X156940000Y-64770000D02*
X156940000Y-63000000D01*
X156940000Y-63000000D02*
X149820000Y-55880000D01*
X81280000Y-60960000D02*
X81280000Y-63500000D01*
D29*
X101600000Y-42450000D02*
X94680000Y-42450000D01*
D28*
X94680000Y-42450000D02*
X94600000Y-42530000D01*
D29*
X94600000Y-42530000D02*
X88900000Y-36830000D01*
D28*
X76200000Y-71120000D02*
X76200000Y-72370300D01*
X76200000Y-72370300D02*
X76930000Y-73100300D01*
X76930000Y-73100300D02*
X76930000Y-76200000D01*
X163830000Y-63500000D02*
X163830000Y-62249700D01*
X163830000Y-62249700D02*
X163283000Y-62249700D01*
X163283000Y-62249700D02*
X162574600Y-61541300D01*
X162574600Y-61541300D02*
X162574600Y-50283400D01*
X162574600Y-50283400D02*
X163328000Y-49530000D01*
X163328000Y-49530000D02*
X164348800Y-49530000D01*
X164348800Y-49530000D02*
X165360700Y-48518100D01*
X165360700Y-48518100D02*
X165360700Y-46007200D01*
X165360700Y-46007200D02*
X170910000Y-40457900D01*
X170910000Y-40457900D02*
X170910000Y-39370000D01*
X185420000Y-42998100D02*
X185420000Y-39370000D01*
X185420000Y-45720000D02*
X185420000Y-42998100D01*
X185420000Y-42998100D02*
X200872500Y-42998100D01*
X200872500Y-42998100D02*
X205740000Y-38130600D01*
X205740000Y-38130600D02*
X205740000Y-38100000D01*
X137160000Y-119380000D02*
X137160000Y-120630300D01*
X66040000Y-134620000D02*
X68264900Y-132395100D01*
X68264900Y-132395100D02*
X68264900Y-128565400D01*
X68264900Y-128565400D02*
X76200000Y-120630300D01*
X177800000Y-96520000D02*
X177800000Y-95269700D01*
X81280000Y-68580000D02*
X81280000Y-71120000D01*
X121920000Y-96520000D02*
X121920000Y-95269700D01*
X116300000Y-81280000D02*
X116300000Y-90167800D01*
X116300000Y-90167800D02*
X121401900Y-95269700D01*
X121401900Y-95269700D02*
X121920000Y-95269700D01*
X205740000Y-124460000D02*
X207043200Y-123156800D01*
X207043200Y-123156800D02*
X207043200Y-120683200D01*
X207043200Y-120683200D02*
X205740000Y-119380000D01*
X76200000Y-83820000D02*
X76200000Y-82569700D01*
X76200000Y-82569700D02*
X77215900Y-82569700D01*
X77215900Y-82569700D02*
X77450400Y-82335200D01*
X77450400Y-82335200D02*
X77450400Y-76720400D01*
X77450400Y-76720400D02*
X76930000Y-76200000D01*
X76200000Y-119380000D02*
X76200000Y-120630300D01*
D29*
X72970800Y-45139200D02*
X82985200Y-45139200D01*
D28*
X79154800Y-51323200D02*
X72970800Y-45139200D01*
D29*
X72970800Y-45139200D02*
X66040000Y-38208400D01*
X88900000Y-39224400D02*
X88900000Y-36830000D01*
X82985200Y-45139200D02*
X88900000Y-39224400D01*
D30*
X66040000Y-127000000D02*
X66040000Y-125824700D01*
X66040000Y-125824700D02*
X65672700Y-125824700D01*
X65672700Y-125824700D02*
X64389000Y-124541000D01*
X64389000Y-124541000D02*
X64389000Y-68548300D01*
X64389000Y-68548300D02*
X65627300Y-67310000D01*
X65627300Y-67310000D02*
X66443300Y-67310000D01*
X66443300Y-67310000D02*
X78398800Y-55354500D01*
X147487500Y-64402500D02*
X149860000Y-62030000D01*
X149860000Y-62030000D02*
X149860000Y-59690000D01*
X147120000Y-64770000D02*
X147487500Y-64402500D01*
X152400000Y-72534700D02*
X152822000Y-72534700D01*
X152822000Y-72534700D02*
X153632400Y-71724300D01*
X153632400Y-71724300D02*
X153632400Y-70547400D01*
X153632400Y-70547400D02*
X147487500Y-64402500D01*
X152400000Y-73660000D02*
X152400000Y-72534700D01*
X128270000Y-59690000D02*
X128270000Y-60815300D01*
X128270000Y-60815300D02*
X125730000Y-63355300D01*
X125730000Y-63355300D02*
X125730000Y-67310000D01*
X100185300Y-60960000D02*
X110925300Y-50220000D01*
X110925300Y-50220000D02*
X114046000Y-50220000D01*
X99060000Y-60960000D02*
X100185300Y-60960000D01*
D28*
X191770000Y-120150400D02*
X183335000Y-128585400D01*
X183335000Y-128585400D02*
X181942800Y-128585400D01*
X191770000Y-100330000D02*
X191770000Y-120150400D01*
X191770000Y-120150400D02*
X202670100Y-120150400D01*
X202670100Y-120150400D02*
X204439700Y-121920000D01*
X205740000Y-121920000D02*
X204439700Y-121920000D01*
X181942800Y-128585400D02*
X181942800Y-120963100D01*
X181942800Y-120963100D02*
X176530000Y-115550300D01*
X181610000Y-130810000D02*
X181942800Y-130477200D01*
X181942800Y-130477200D02*
X181942800Y-128585400D01*
X176530000Y-114300000D02*
X176530000Y-115550300D01*
X181610000Y-134620000D02*
X181610000Y-130810000D01*
X133350000Y-132080000D02*
X132099700Y-132080000D01*
X124206000Y-132080000D02*
X124206000Y-133280300D01*
X124206000Y-133280300D02*
X124811100Y-133885400D01*
X124811100Y-133885400D02*
X130294300Y-133885400D01*
X130294300Y-133885400D02*
X132099700Y-132080000D01*
D30*
X129540000Y-83820000D02*
X130665300Y-83820000D01*
X152400000Y-91440000D02*
X153525300Y-91440000D01*
X153525300Y-91440000D02*
X154410500Y-90554800D01*
X154410500Y-90554800D02*
X154410500Y-89301600D01*
X154410500Y-89301600D02*
X152735600Y-87626700D01*
X152735600Y-87626700D02*
X145279100Y-87626700D01*
X145279100Y-87626700D02*
X137806100Y-80153700D01*
X137806100Y-80153700D02*
X134331600Y-80153700D01*
X134331600Y-80153700D02*
X130665300Y-83820000D01*
X66040000Y-73660000D02*
X66040000Y-74835300D01*
X76200000Y-91440000D02*
X76200000Y-90314700D01*
X76200000Y-90314700D02*
X75938900Y-90314700D01*
X75938900Y-90314700D02*
X75074700Y-89450500D01*
X75074700Y-89450500D02*
X75074700Y-85405800D01*
X75074700Y-85405800D02*
X67215300Y-77546400D01*
X67215300Y-77546400D02*
X67215300Y-75643200D01*
X67215300Y-75643200D02*
X66407400Y-74835300D01*
X66407400Y-74835300D02*
X66040000Y-74835300D01*
X66040000Y-76200000D02*
X66040000Y-77375300D01*
X76200000Y-93980000D02*
X76200000Y-92854700D01*
X76200000Y-92854700D02*
X75981300Y-92854700D01*
X75981300Y-92854700D02*
X74624300Y-91497700D01*
X74624300Y-91497700D02*
X74624300Y-85627200D01*
X74624300Y-85627200D02*
X66372400Y-77375300D01*
X66372400Y-77375300D02*
X66040000Y-77375300D01*
X91440000Y-106680000D02*
X91440000Y-105554700D01*
X91440000Y-105554700D02*
X91721300Y-105554700D01*
X91721300Y-105554700D02*
X92584200Y-104691800D01*
X92584200Y-104691800D02*
X92584200Y-98577800D01*
X92584200Y-98577800D02*
X91693400Y-97687000D01*
X91693400Y-97687000D02*
X90967300Y-97687000D01*
X90967300Y-97687000D02*
X78740000Y-85459700D01*
X78740000Y-85459700D02*
X78740000Y-63500000D01*
X78740000Y-63500000D02*
X76200000Y-60960000D01*
X66040000Y-40640000D02*
X66040000Y-39464700D01*
X152400000Y-76200000D02*
X152400000Y-75074700D01*
X152400000Y-75074700D02*
X152681300Y-75074700D01*
X152681300Y-75074700D02*
X154082800Y-73673200D01*
X154082800Y-73673200D02*
X154082800Y-68521600D01*
X154082800Y-68521600D02*
X151233900Y-65672700D01*
X151233900Y-65672700D02*
X151233900Y-59437400D01*
X151233900Y-59437400D02*
X148577300Y-56780800D01*
X148577300Y-56780800D02*
X148577300Y-53091900D01*
X148577300Y-53091900D02*
X128138300Y-32652900D01*
X128138300Y-32652900D02*
X67057300Y-32652900D01*
X67057300Y-32652900D02*
X64732300Y-34977900D01*
X64732300Y-34977900D02*
X64732300Y-38597700D01*
X64732300Y-38597700D02*
X65599300Y-39464700D01*
X65599300Y-39464700D02*
X66040000Y-39464700D01*
X81102000Y-55638600D02*
X68643400Y-43180000D01*
X68643400Y-43180000D02*
X66040000Y-43180000D01*
X171450000Y-102964700D02*
X168411900Y-99926600D01*
X168411900Y-99926600D02*
X168411900Y-87007700D01*
X168411900Y-87007700D02*
X168820900Y-86598700D01*
X168820900Y-86598700D02*
X168820900Y-80206100D01*
X168820900Y-80206100D02*
X168669500Y-80054700D01*
X171450000Y-104140000D02*
X171450000Y-102964700D01*
X152400000Y-86360000D02*
X152400000Y-85234700D01*
X152400000Y-85234700D02*
X152681300Y-85234700D01*
X152681300Y-85234700D02*
X156212500Y-81703500D01*
X156212500Y-81703500D02*
X156212500Y-69894600D01*
X156212500Y-69894600D02*
X158815000Y-67292100D01*
X158815000Y-67292100D02*
X158815000Y-63259300D01*
X121920000Y-111760000D02*
X127695000Y-105985000D01*
X127695000Y-105985000D02*
X127695000Y-101654800D01*
X127695000Y-101654800D02*
X129098700Y-100251100D01*
X129098700Y-100251100D02*
X134168700Y-100251100D01*
X134168700Y-100251100D02*
X136629800Y-97790000D01*
X136629800Y-97790000D02*
X137561100Y-97790000D01*
X137561100Y-97790000D02*
X138600000Y-96751100D01*
X138600000Y-96751100D02*
X138600000Y-89639100D01*
X121920000Y-87774700D02*
X121638700Y-87774700D01*
X121638700Y-87774700D02*
X118517100Y-84653100D01*
X118517100Y-84653100D02*
X118517100Y-79753400D01*
X118517100Y-79753400D02*
X111710500Y-72946800D01*
X121920000Y-88900000D02*
X121920000Y-87774700D01*
X165760800Y-85884300D02*
X166222200Y-85422900D01*
X166222200Y-85422900D02*
X166222200Y-62054200D01*
X166222200Y-62054200D02*
X171031700Y-57244700D01*
X171031700Y-57244700D02*
X172967600Y-57244700D01*
X163830000Y-90314700D02*
X164111300Y-90314700D01*
X164111300Y-90314700D02*
X165760800Y-88665200D01*
X165760800Y-88665200D02*
X165760800Y-85884300D01*
X163830000Y-91440000D02*
X163830000Y-90314700D01*
X66040000Y-79915300D02*
X66407300Y-79915300D01*
X66407300Y-79915300D02*
X73949000Y-87457000D01*
X73949000Y-87457000D02*
X73949000Y-92106100D01*
X73949000Y-92106100D02*
X74849500Y-93006600D01*
X74849500Y-93006600D02*
X74849500Y-94266200D01*
X74849500Y-94266200D02*
X75978000Y-95394700D01*
X75978000Y-95394700D02*
X76200000Y-95394700D01*
X66040000Y-78740000D02*
X66040000Y-79915300D01*
X76200000Y-96520000D02*
X76200000Y-95394700D01*
X99060000Y-99060000D02*
X100185300Y-99060000D01*
X100185300Y-99060000D02*
X107407600Y-91837700D01*
X107407600Y-91837700D02*
X107408600Y-91837700D01*
X152400000Y-97934700D02*
X152118600Y-97934700D01*
X152118600Y-97934700D02*
X151274700Y-97090800D01*
X151274700Y-97090800D02*
X151274700Y-96343100D01*
X151274700Y-96343100D02*
X137585400Y-82653800D01*
X137585400Y-82653800D02*
X136706200Y-82653800D01*
X136706200Y-82653800D02*
X135793200Y-83566800D01*
X135793200Y-83566800D02*
X135793200Y-86802600D01*
X135793200Y-86802600D02*
X130030400Y-92565400D01*
X130030400Y-92565400D02*
X128969400Y-92565400D01*
X128969400Y-92565400D02*
X123045300Y-86641300D01*
X123045300Y-86641300D02*
X123045300Y-86360000D01*
X152400000Y-99060000D02*
X152400000Y-97934700D01*
X121920000Y-86360000D02*
X123045300Y-86360000D01*
X66040000Y-82455300D02*
X66338800Y-82455300D01*
X66338800Y-82455300D02*
X73498700Y-89615200D01*
X73498700Y-89615200D02*
X73498700Y-92292800D01*
X73498700Y-92292800D02*
X74174100Y-92968200D01*
X74174100Y-92968200D02*
X74174100Y-96190200D01*
X74174100Y-96190200D02*
X75918600Y-97934700D01*
X75918600Y-97934700D02*
X76200000Y-97934700D01*
X66040000Y-81280000D02*
X66040000Y-82455300D01*
X76200000Y-99060000D02*
X76200000Y-97934700D01*
X66040000Y-84995300D02*
X66363500Y-84995300D01*
X66363500Y-84995300D02*
X73048400Y-91680200D01*
X73048400Y-91680200D02*
X73048400Y-92789400D01*
X73048400Y-92789400D02*
X73723800Y-93464800D01*
X73723800Y-93464800D02*
X73723800Y-98268400D01*
X73723800Y-98268400D02*
X75930100Y-100474700D01*
X75930100Y-100474700D02*
X76200000Y-100474700D01*
X66040000Y-83820000D02*
X66040000Y-84995300D01*
X76200000Y-101600000D02*
X76200000Y-100474700D01*
X129540000Y-109220000D02*
X129540000Y-108094700D01*
X129540000Y-109220000D02*
X128414700Y-109220000D01*
X129540000Y-108094700D02*
X130504100Y-108094700D01*
X130504100Y-108094700D02*
X134102300Y-104496500D01*
X128414700Y-109220000D02*
X128414700Y-109642000D01*
X128414700Y-109642000D02*
X122416000Y-115640700D01*
X122416000Y-115640700D02*
X119862500Y-115640700D01*
X119862500Y-115640700D02*
X117500200Y-118003000D01*
X117500200Y-118003000D02*
X107103200Y-118003000D01*
X107103200Y-118003000D02*
X99590200Y-110490000D01*
X99590200Y-110490000D02*
X98659000Y-110490000D01*
X98659000Y-110490000D02*
X95121900Y-106952800D01*
X95121900Y-106952800D02*
X94260000Y-107814700D01*
X94260000Y-107814700D02*
X81000000Y-107814700D01*
X81000000Y-107814700D02*
X77325300Y-104140000D01*
X97934700Y-104140000D02*
X95121900Y-106952800D01*
X76200000Y-104140000D02*
X77325300Y-104140000D01*
X99060000Y-104140000D02*
X97934700Y-104140000D01*
X66040000Y-87535300D02*
X66407300Y-87535300D01*
X66407300Y-87535300D02*
X73273500Y-94401500D01*
X73273500Y-94401500D02*
X73273500Y-100360400D01*
X73273500Y-100360400D02*
X75927800Y-103014700D01*
X75927800Y-103014700D02*
X76200000Y-103014700D01*
X66040000Y-86360000D02*
X66040000Y-87535300D01*
X76200000Y-104140000D02*
X76200000Y-103014700D01*
X76200000Y-105554700D02*
X75995500Y-105554700D01*
X75995500Y-105554700D02*
X67738600Y-97297800D01*
X67738600Y-97297800D02*
X67738600Y-91406600D01*
X67738600Y-91406600D02*
X66407300Y-90075300D01*
X66407300Y-90075300D02*
X66040000Y-90075300D01*
X66040000Y-88900000D02*
X66040000Y-90075300D01*
X76200000Y-106680000D02*
X76200000Y-105554700D01*
X121920000Y-109220000D02*
X115703600Y-115436400D01*
X115703600Y-115436400D02*
X106401700Y-115436400D01*
X106401700Y-115436400D02*
X100185300Y-109220000D01*
X76200000Y-109220000D02*
X76200000Y-108094700D01*
X66040000Y-91440000D02*
X66040000Y-92615300D01*
X66040000Y-92615300D02*
X66407400Y-92615300D01*
X66407400Y-92615300D02*
X67215300Y-93423200D01*
X67215300Y-93423200D02*
X67215300Y-99391300D01*
X67215300Y-99391300D02*
X75918700Y-108094700D01*
X75918700Y-108094700D02*
X76200000Y-108094700D01*
X99060000Y-109220000D02*
X100185300Y-109220000D01*
X152400000Y-110634700D02*
X152681300Y-110634700D01*
X152681300Y-110634700D02*
X154860800Y-108455200D01*
X154860800Y-108455200D02*
X154860800Y-86263400D01*
X154860800Y-86263400D02*
X159540300Y-81583900D01*
X159540300Y-81583900D02*
X159540300Y-62473300D01*
X159540300Y-62473300D02*
X159249900Y-62182900D01*
X159249900Y-62182900D02*
X159249900Y-39202700D01*
X159249900Y-39202700D02*
X165764800Y-32687800D01*
X165764800Y-32687800D02*
X205226000Y-32687800D01*
X205226000Y-32687800D02*
X207019300Y-34481100D01*
X207019300Y-34481100D02*
X207019300Y-41092700D01*
X207019300Y-41092700D02*
X206107300Y-42004700D01*
X206107300Y-42004700D02*
X205740000Y-42004700D01*
X159249900Y-39202700D02*
X152249700Y-32202500D01*
X152249700Y-32202500D02*
X66870800Y-32202500D01*
X66870800Y-32202500D02*
X64281900Y-34791400D01*
X64281900Y-34791400D02*
X64281900Y-45693900D01*
X64281900Y-45693900D02*
X65672700Y-47084700D01*
X65672700Y-47084700D02*
X66040000Y-47084700D01*
X66040000Y-48260000D02*
X66040000Y-47084700D01*
X205740000Y-43180000D02*
X205740000Y-42004700D01*
X152400000Y-111760000D02*
X152400000Y-110634700D01*
X152400000Y-113174700D02*
X152681300Y-113174700D01*
X152681300Y-113174700D02*
X155311100Y-110544900D01*
X155311100Y-110544900D02*
X155311100Y-86450000D01*
X155311100Y-86450000D02*
X159992900Y-81768200D01*
X159992900Y-81768200D02*
X159992900Y-44468000D01*
X152400000Y-114300000D02*
X152400000Y-113174700D01*
X152400000Y-115714700D02*
X152681300Y-115714700D01*
X152681300Y-115714700D02*
X155761400Y-112634600D01*
X155761400Y-112634600D02*
X155761400Y-86636600D01*
X155761400Y-86636600D02*
X161227200Y-81170800D01*
X161227200Y-81170800D02*
X161227200Y-49433400D01*
X152400000Y-116840000D02*
X152400000Y-115714700D01*
X152400000Y-118254700D02*
X152681300Y-118254700D01*
X152681300Y-118254700D02*
X156211700Y-114724300D01*
X156211700Y-114724300D02*
X156211700Y-86823200D01*
X156211700Y-86823200D02*
X161987300Y-81047600D01*
X161987300Y-81047600D02*
X161987300Y-39480700D01*
X161987300Y-39480700D02*
X163462700Y-38005300D01*
X163462700Y-38005300D02*
X163830000Y-38005300D01*
X205740000Y-50800000D02*
X204564700Y-50800000D01*
X163830000Y-37374000D02*
X174907900Y-37374000D01*
X174907900Y-37374000D02*
X184594600Y-47060700D01*
X184594600Y-47060700D02*
X200825400Y-47060700D01*
X200825400Y-47060700D02*
X204564700Y-50800000D01*
X163830000Y-37374000D02*
X163830000Y-38005300D01*
X163830000Y-36830000D02*
X163830000Y-37374000D01*
X152400000Y-119380000D02*
X152400000Y-118254700D01*
X67215300Y-114300000D02*
X71050200Y-118134900D01*
X71050200Y-118134900D02*
X84172000Y-118134900D01*
X84172000Y-118134900D02*
X100474700Y-134437600D01*
X100474700Y-134437600D02*
X100474700Y-134620000D01*
X101600000Y-134620000D02*
X102725300Y-134620000D01*
X137160000Y-116840000D02*
X136034700Y-116840000D01*
X136034700Y-116840000D02*
X136034700Y-117191000D01*
X136034700Y-117191000D02*
X117378100Y-135847600D01*
X117378100Y-135847600D02*
X103596800Y-135847600D01*
X103596800Y-135847600D02*
X102725300Y-134976100D01*
X102725300Y-134976100D02*
X102725300Y-134620000D01*
X101600000Y-134620000D02*
X100474700Y-134620000D01*
X66040000Y-114300000D02*
X67215300Y-114300000D01*
X109220000Y-134620000D02*
X110345300Y-134620000D01*
X110345300Y-134620000D02*
X110345300Y-134338700D01*
X110345300Y-134338700D02*
X111289400Y-133394600D01*
X111289400Y-133394600D02*
X118065400Y-133394600D01*
X118065400Y-133394600D02*
X137160000Y-114300000D01*
X137160000Y-112885300D02*
X136949000Y-112885300D01*
X136949000Y-112885300D02*
X131977200Y-117857100D01*
X131977200Y-117857100D02*
X131977200Y-118539400D01*
X131977200Y-118539400D02*
X121669700Y-128846900D01*
X121669700Y-128846900D02*
X113379900Y-128846900D01*
X113379900Y-128846900D02*
X107805300Y-134421500D01*
X107805300Y-134421500D02*
X107805300Y-134620000D01*
X156065300Y-135153700D02*
X156762100Y-135850500D01*
X156762100Y-135850500D02*
X158297100Y-135850500D01*
X158297100Y-135850500D02*
X172419000Y-121728600D01*
X172419000Y-121728600D02*
X172419000Y-111923700D01*
X172419000Y-111923700D02*
X173525900Y-110816800D01*
X173525900Y-110816800D02*
X173525900Y-94444200D01*
X173525900Y-94444200D02*
X171791700Y-92710000D01*
X171791700Y-92710000D02*
X171061100Y-92710000D01*
X171061100Y-92710000D02*
X170308800Y-91957700D01*
X170308800Y-91957700D02*
X170308800Y-90965800D01*
X170308800Y-90965800D02*
X171249300Y-90025300D01*
X171249300Y-90025300D02*
X171450000Y-90025300D01*
X137160000Y-111760000D02*
X137160000Y-112885300D01*
X106680000Y-134620000D02*
X107805300Y-134620000D01*
X142240000Y-134620000D02*
X143365300Y-134620000D01*
X156065300Y-135153700D02*
X155447500Y-135771500D01*
X155447500Y-135771500D02*
X151905600Y-135771500D01*
X151905600Y-135771500D02*
X151130000Y-134995900D01*
X151130000Y-134995900D02*
X151130000Y-134224100D01*
X151130000Y-134224100D02*
X150368900Y-133463000D01*
X150368900Y-133463000D02*
X146808000Y-133463000D01*
X146808000Y-133463000D02*
X146050000Y-134221000D01*
X146050000Y-134221000D02*
X146050000Y-134947500D01*
X146050000Y-134947500D02*
X145252100Y-135745400D01*
X145252100Y-135745400D02*
X144209400Y-135745400D01*
X144209400Y-135745400D02*
X143365300Y-134901300D01*
X143365300Y-134901300D02*
X143365300Y-134620000D01*
X154940000Y-128125300D02*
X156065300Y-129250600D01*
X156065300Y-129250600D02*
X156065300Y-135153700D01*
X171450000Y-88900000D02*
X171450000Y-90025300D01*
X154940000Y-127000000D02*
X154940000Y-128125300D01*
X96896800Y-115469600D02*
X96896800Y-120296900D01*
X96896800Y-120296900D02*
X98762200Y-122162300D01*
X98762200Y-122162300D02*
X124362300Y-122162300D01*
X124362300Y-122162300D02*
X128414600Y-118110000D01*
X128414600Y-118110000D02*
X129885800Y-118110000D01*
X129885800Y-118110000D02*
X133319900Y-114675900D01*
X133319900Y-114675900D02*
X133319900Y-111253200D01*
X133319900Y-111253200D02*
X136767800Y-107805300D01*
X136767800Y-107805300D02*
X137160000Y-107805300D01*
X168493400Y-77681000D02*
X167932500Y-78241900D01*
X167932500Y-78241900D02*
X167932500Y-85129100D01*
X167932500Y-85129100D02*
X168370600Y-85567200D01*
X168370600Y-85567200D02*
X168370600Y-86412100D01*
X168370600Y-86412100D02*
X167932500Y-86850200D01*
X167932500Y-86850200D02*
X167932500Y-96050100D01*
X167932500Y-96050100D02*
X158474300Y-105508300D01*
X96896800Y-115469600D02*
X96896800Y-114767200D01*
X96896800Y-114767200D02*
X98778700Y-112885300D01*
X98778700Y-112885300D02*
X99060000Y-112885300D01*
X96896800Y-115469600D02*
X90197200Y-115469600D01*
X90197200Y-115469600D02*
X86487600Y-111760000D01*
X86487600Y-111760000D02*
X76200000Y-111760000D01*
X99060000Y-111760000D02*
X99060000Y-112885300D01*
X137160000Y-106680000D02*
X137160000Y-107805300D01*
X185420000Y-50800000D02*
X185420000Y-51925300D01*
X177800000Y-76200000D02*
X177800000Y-75074700D01*
X177800000Y-75074700D02*
X178644000Y-75074700D01*
X178644000Y-75074700D02*
X179375700Y-74343000D01*
X179375700Y-74343000D02*
X179375700Y-57688300D01*
X179375700Y-57688300D02*
X185138700Y-51925300D01*
X185138700Y-51925300D02*
X185420000Y-51925300D01*
X99060000Y-114300000D02*
X99060000Y-115425300D01*
X137160000Y-104140000D02*
X137160000Y-105265300D01*
X137160000Y-105265300D02*
X136978900Y-105265300D01*
X136978900Y-105265300D02*
X131859400Y-110384800D01*
X131859400Y-110384800D02*
X131859400Y-113578100D01*
X131859400Y-113578100D02*
X129867500Y-115570000D01*
X129867500Y-115570000D02*
X128414600Y-115570000D01*
X128414600Y-115570000D02*
X122322700Y-121661900D01*
X122322700Y-121661900D02*
X98898700Y-121661900D01*
X98898700Y-121661900D02*
X97347200Y-120110400D01*
X97347200Y-120110400D02*
X97347200Y-116856800D01*
X97347200Y-116856800D02*
X98778700Y-115425300D01*
X98778700Y-115425300D02*
X99060000Y-115425300D01*
X158264000Y-103875400D02*
X167482100Y-94657300D01*
X167482100Y-94657300D02*
X167482100Y-86173400D01*
X167482100Y-86173400D02*
X167645300Y-86010200D01*
X177800000Y-77614700D02*
X178081300Y-77614700D01*
X178081300Y-77614700D02*
X181757700Y-73938300D01*
X181757700Y-73938300D02*
X181757700Y-60427700D01*
X181757700Y-60427700D02*
X185180100Y-57005300D01*
X185180100Y-57005300D02*
X185420000Y-57005300D01*
X177800000Y-78740000D02*
X177800000Y-77614700D01*
X185420000Y-55880000D02*
X185420000Y-57005300D01*
X137160000Y-102725300D02*
X136878600Y-102725300D01*
X136878600Y-102725300D02*
X135397800Y-104206100D01*
X135397800Y-104206100D02*
X135397800Y-105666200D01*
X135397800Y-105666200D02*
X130715300Y-110348700D01*
X130715300Y-110348700D02*
X130715300Y-112176300D01*
X130715300Y-112176300D02*
X129861600Y-113030000D01*
X129861600Y-113030000D02*
X129208200Y-113030000D01*
X129208200Y-113030000D02*
X124824900Y-117413300D01*
X124824900Y-117413300D02*
X124824900Y-118208100D01*
X124824900Y-118208100D02*
X121827200Y-121205800D01*
X121827200Y-121205800D02*
X99086300Y-121205800D01*
X99086300Y-121205800D02*
X97809300Y-119928800D01*
X97809300Y-119928800D02*
X97809300Y-118794000D01*
X97809300Y-118794000D02*
X98638000Y-117965300D01*
X98638000Y-117965300D02*
X99060000Y-117965300D01*
X185420000Y-62085300D02*
X185138700Y-62085300D01*
X185138700Y-62085300D02*
X182416700Y-64807300D01*
X182416700Y-64807300D02*
X182416700Y-75819300D01*
X182416700Y-75819300D02*
X178081300Y-80154700D01*
X178081300Y-80154700D02*
X177800000Y-80154700D01*
X99060000Y-116840000D02*
X99060000Y-117965300D01*
X137160000Y-101600000D02*
X137160000Y-102725300D01*
X185420000Y-60960000D02*
X185420000Y-62085300D01*
X177800000Y-81280000D02*
X177800000Y-80154700D01*
X66040000Y-106680000D02*
X66040000Y-107855300D01*
X76200000Y-116840000D02*
X75074700Y-116840000D01*
X75074700Y-116840000D02*
X75074700Y-116558700D01*
X75074700Y-116558700D02*
X66371300Y-107855300D01*
X66371300Y-107855300D02*
X66040000Y-107855300D01*
X66040000Y-104140000D02*
X66040000Y-105315300D01*
X91440000Y-119380000D02*
X90314700Y-119380000D01*
X90314700Y-119380000D02*
X86504000Y-115569300D01*
X86504000Y-115569300D02*
X75823600Y-115569300D01*
X75823600Y-115569300D02*
X67215300Y-106961000D01*
X67215300Y-106961000D02*
X67215300Y-106123200D01*
X67215300Y-106123200D02*
X66407400Y-105315300D01*
X66407400Y-105315300D02*
X66040000Y-105315300D01*
X137160000Y-100185300D02*
X136878700Y-100185300D01*
X136878700Y-100185300D02*
X134854000Y-102210000D01*
X134854000Y-102210000D02*
X134854000Y-105573100D01*
X134854000Y-105573100D02*
X129952900Y-110474200D01*
X129952900Y-110474200D02*
X129215000Y-110474200D01*
X129215000Y-110474200D02*
X124893000Y-114796200D01*
X124893000Y-114796200D02*
X124893000Y-115480900D01*
X124893000Y-115480900D02*
X122334600Y-118039300D01*
X122334600Y-118039300D02*
X120421700Y-118039300D01*
X120421700Y-118039300D02*
X119081000Y-119380000D01*
X119081000Y-119380000D02*
X114300000Y-119380000D01*
X178925300Y-83820000D02*
X184005400Y-78739900D01*
X184005400Y-78739900D02*
X184005400Y-68298600D01*
X184005400Y-68298600D02*
X185138700Y-67165300D01*
X185138700Y-67165300D02*
X185420000Y-67165300D01*
X173850200Y-122691500D02*
X173850200Y-113074500D01*
X173850200Y-113074500D02*
X177700500Y-109224200D01*
X177700500Y-109224200D02*
X177700500Y-101197800D01*
X177700500Y-101197800D02*
X179825900Y-99072400D01*
X179825900Y-99072400D02*
X179825900Y-84720600D01*
X179825900Y-84720600D02*
X178925300Y-83820000D01*
X185420000Y-66040000D02*
X185420000Y-67165300D01*
X141686700Y-118499200D02*
X141686700Y-104446300D01*
X141686700Y-104446300D02*
X137425700Y-100185300D01*
X137425700Y-100185300D02*
X137160000Y-100185300D01*
X137160000Y-99060000D02*
X137160000Y-100185300D01*
X177800000Y-83820000D02*
X178925300Y-83820000D01*
X137160000Y-96520000D02*
X136034700Y-96520000D01*
X114300000Y-116840000D02*
X115425300Y-116840000D01*
X115425300Y-116840000D02*
X115425300Y-116595800D01*
X115425300Y-116595800D02*
X121531100Y-110490000D01*
X121531100Y-110490000D02*
X122277900Y-110490000D01*
X122277900Y-110490000D02*
X126269000Y-106498900D01*
X126269000Y-106498900D02*
X126269000Y-102416900D01*
X126269000Y-102416900D02*
X128885200Y-99800700D01*
X128885200Y-99800700D02*
X132754000Y-99800700D01*
X132754000Y-99800700D02*
X136034700Y-96520000D01*
X66040000Y-102775300D02*
X66407400Y-102775300D01*
X66407400Y-102775300D02*
X67215300Y-103583200D01*
X67215300Y-103583200D02*
X67215300Y-104421300D01*
X67215300Y-104421300D02*
X75824000Y-113030000D01*
X75824000Y-113030000D02*
X86504700Y-113030000D01*
X86504700Y-113030000D02*
X90314700Y-116840000D01*
X177800000Y-50800000D02*
X177800000Y-51925300D01*
X177800000Y-86360000D02*
X176123000Y-84683000D01*
X176123000Y-84683000D02*
X176123000Y-66119700D01*
X176123000Y-66119700D02*
X177472700Y-64770000D01*
X177472700Y-64770000D02*
X178186400Y-64770000D01*
X178186400Y-64770000D02*
X178925300Y-64031100D01*
X178925300Y-64031100D02*
X178925300Y-52769200D01*
X178925300Y-52769200D02*
X178081400Y-51925300D01*
X178081400Y-51925300D02*
X177800000Y-51925300D01*
X66040000Y-101600000D02*
X66040000Y-102775300D01*
X91440000Y-116840000D02*
X90314700Y-116840000D01*
X137160000Y-93980000D02*
X136034700Y-93980000D01*
X114300000Y-114300000D02*
X115425300Y-114300000D01*
X115425300Y-114300000D02*
X120387900Y-109337400D01*
X120387900Y-109337400D02*
X120387900Y-109131600D01*
X120387900Y-109131600D02*
X121569500Y-107950000D01*
X121569500Y-107950000D02*
X122254500Y-107950000D01*
X122254500Y-107950000D02*
X125161500Y-105043000D01*
X125161500Y-105043000D02*
X125161500Y-102887500D01*
X125161500Y-102887500D02*
X128700600Y-99348400D01*
X128700600Y-99348400D02*
X130666300Y-99348400D01*
X130666300Y-99348400D02*
X136034700Y-93980000D01*
X153685200Y-89607300D02*
X153137700Y-90154800D01*
X153137700Y-90154800D02*
X152006700Y-90154800D01*
X152006700Y-90154800D02*
X150430200Y-91731300D01*
X150430200Y-91731300D02*
X150430200Y-92742100D01*
X66040000Y-99060000D02*
X66040000Y-100235300D01*
X91440000Y-114300000D02*
X90314700Y-114300000D01*
X90314700Y-114300000D02*
X86504700Y-110490000D01*
X86504700Y-110490000D02*
X75824000Y-110490000D01*
X75824000Y-110490000D02*
X67215300Y-101881300D01*
X67215300Y-101881300D02*
X67215300Y-101043200D01*
X67215300Y-101043200D02*
X66407400Y-100235300D01*
X66407400Y-100235300D02*
X66040000Y-100235300D01*
X177800000Y-55880000D02*
X177800000Y-57005300D01*
X177800000Y-88900000D02*
X178925300Y-90025300D01*
X178925300Y-90025300D02*
X178925300Y-91912300D01*
X178925300Y-91912300D02*
X178227300Y-92610300D01*
X178227300Y-92610300D02*
X177370800Y-92610300D01*
X177370800Y-92610300D02*
X175171300Y-90410800D01*
X175171300Y-90410800D02*
X175171300Y-59420400D01*
X175171300Y-59420400D02*
X177586400Y-57005300D01*
X177586400Y-57005300D02*
X177800000Y-57005300D01*
X114300000Y-111760000D02*
X115425300Y-111760000D01*
X115425300Y-111760000D02*
X115425300Y-111515800D01*
X115425300Y-111515800D02*
X121675800Y-105265300D01*
X121675800Y-105265300D02*
X122390400Y-105265300D01*
X122390400Y-105265300D02*
X123396300Y-104259400D01*
X123396300Y-104259400D02*
X123396300Y-104015800D01*
X123396300Y-104015800D02*
X128834600Y-98577500D01*
X128834600Y-98577500D02*
X130022500Y-98577500D01*
X130022500Y-98577500D02*
X137160000Y-91440000D01*
X177800000Y-90314700D02*
X177518700Y-90314700D01*
X177518700Y-90314700D02*
X175629100Y-88425100D01*
X175629100Y-88425100D02*
X175629100Y-63974900D01*
X175629100Y-63974900D02*
X177518700Y-62085300D01*
X177518700Y-62085300D02*
X177800000Y-62085300D01*
X177800000Y-60960000D02*
X177800000Y-62085300D01*
X177800000Y-91440000D02*
X177800000Y-90314700D01*
X173340400Y-123651100D02*
X173094400Y-123405100D01*
X173094400Y-123405100D02*
X173094400Y-113150700D01*
X173094400Y-113150700D02*
X177250200Y-108994900D01*
X177250200Y-108994900D02*
X177250200Y-100132300D01*
X177250200Y-100132300D02*
X179043800Y-98338700D01*
X179043800Y-98338700D02*
X179043800Y-94098500D01*
X179043800Y-94098500D02*
X178925300Y-93980000D01*
X138285300Y-88900000D02*
X138972300Y-88900000D01*
X138972300Y-88900000D02*
X143658400Y-93586100D01*
X143658400Y-93586100D02*
X143658400Y-126055900D01*
X137160000Y-88900000D02*
X138285300Y-88900000D01*
X177800000Y-93980000D02*
X178925300Y-93980000D01*
X114300000Y-109220000D02*
X115425300Y-109220000D01*
X137160000Y-88900000D02*
X137160000Y-90025300D01*
X137160000Y-90025300D02*
X136878600Y-90025300D01*
X136878600Y-90025300D02*
X136034700Y-90869200D01*
X136034700Y-90869200D02*
X136034700Y-91679200D01*
X136034700Y-91679200D02*
X130068600Y-97645300D01*
X130068600Y-97645300D02*
X128331000Y-97645300D01*
X128331000Y-97645300D02*
X123250900Y-102725400D01*
X123250900Y-102725400D02*
X121638600Y-102725400D01*
X121638600Y-102725400D02*
X115425300Y-108938700D01*
X115425300Y-108938700D02*
X115425300Y-109220000D01*
X178925300Y-93980000D02*
X179375600Y-93529700D01*
X179375600Y-93529700D02*
X179375600Y-86323700D01*
X179375600Y-86323700D02*
X178141900Y-85090000D01*
X178141900Y-85090000D02*
X177454600Y-85090000D01*
X177454600Y-85090000D02*
X176573400Y-84208800D01*
X176573400Y-84208800D02*
X176573400Y-67969900D01*
X176573400Y-67969900D02*
X177378000Y-67165300D01*
X177378000Y-67165300D02*
X177800000Y-67165300D01*
X177800000Y-66040000D02*
X177800000Y-67165300D01*
X137160000Y-86564700D02*
X137308600Y-86564700D01*
X137308600Y-86564700D02*
X144780000Y-94036100D01*
X144780000Y-94036100D02*
X144780000Y-127000000D01*
X137160000Y-86564700D02*
X137160000Y-87485300D01*
X137160000Y-86360000D02*
X137160000Y-86564700D01*
X114300000Y-101600000D02*
X115425300Y-101600000D01*
X137160000Y-87485300D02*
X136878600Y-87485300D01*
X136878600Y-87485300D02*
X136034700Y-88329200D01*
X136034700Y-88329200D02*
X136034700Y-89153700D01*
X136034700Y-89153700D02*
X130012300Y-95176100D01*
X130012300Y-95176100D02*
X129269800Y-95176100D01*
X129269800Y-95176100D02*
X127313800Y-97132100D01*
X127313800Y-97132100D02*
X127313800Y-97228400D01*
X127313800Y-97228400D02*
X124067500Y-100474700D01*
X124067500Y-100474700D02*
X116550600Y-100474700D01*
X116550600Y-100474700D02*
X115425300Y-101600000D01*
X171450000Y-50800000D02*
X171450000Y-51925300D01*
X163830000Y-83820000D02*
X163830000Y-82694700D01*
X163830000Y-82694700D02*
X164674000Y-82694700D01*
X164674000Y-82694700D02*
X165055400Y-82313300D01*
X165055400Y-82313300D02*
X165055400Y-58038600D01*
X165055400Y-58038600D02*
X171168700Y-51925300D01*
X171168700Y-51925300D02*
X171450000Y-51925300D01*
X66040000Y-71120000D02*
X66040000Y-72295300D01*
X91440000Y-101600000D02*
X91440000Y-100474700D01*
X91440000Y-100474700D02*
X91158600Y-100474700D01*
X91158600Y-100474700D02*
X90314700Y-99630800D01*
X90314700Y-99630800D02*
X90314700Y-98881300D01*
X90314700Y-98881300D02*
X76594100Y-85160700D01*
X76594100Y-85160700D02*
X75759000Y-85160700D01*
X75759000Y-85160700D02*
X73386000Y-82787700D01*
X73386000Y-82787700D02*
X73386000Y-79274000D01*
X73386000Y-79274000D02*
X66407300Y-72295300D01*
X66407300Y-72295300D02*
X66040000Y-72295300D01*
X144780000Y-134620000D02*
X144780000Y-127000000D01*
X152400000Y-134620000D02*
X152400000Y-133494700D01*
X137160000Y-83820000D02*
X137160000Y-84945300D01*
X137160000Y-84945300D02*
X137441300Y-84945300D01*
X137441300Y-84945300D02*
X145979300Y-93483300D01*
X145979300Y-93483300D02*
X145979300Y-127496000D01*
X145979300Y-127496000D02*
X151978000Y-133494700D01*
X151978000Y-133494700D02*
X152400000Y-133494700D01*
X154940000Y-134620000D02*
X154940000Y-133494700D01*
X137160000Y-81280000D02*
X138285300Y-81280000D01*
X138285300Y-81280000D02*
X138285300Y-81649200D01*
X138285300Y-81649200D02*
X151886100Y-95250000D01*
X151886100Y-95250000D02*
X152776900Y-95250000D01*
X152776900Y-95250000D02*
X153573600Y-96046700D01*
X153573600Y-96046700D02*
X153573600Y-99490300D01*
X153573600Y-99490300D02*
X152733900Y-100330000D01*
X152733900Y-100330000D02*
X152078000Y-100330000D01*
X152078000Y-100330000D02*
X148717000Y-103691000D01*
X148717000Y-103691000D02*
X148717000Y-127553000D01*
X148717000Y-127553000D02*
X154658700Y-133494700D01*
X154658700Y-133494700D02*
X154940000Y-133494700D01*
X158186400Y-54569900D02*
X158089700Y-54666600D01*
X158089700Y-54666600D02*
X158089700Y-63559700D01*
X158089700Y-63559700D02*
X158186400Y-63656400D01*
X158186400Y-63656400D02*
X158186400Y-67283800D01*
X158186400Y-67283800D02*
X155600500Y-69869700D01*
X155600500Y-69869700D02*
X155600500Y-74642200D01*
X155600500Y-74642200D02*
X152628000Y-77614700D01*
X152628000Y-77614700D02*
X139410600Y-77614700D01*
X139410600Y-77614700D02*
X138285300Y-78740000D01*
X137160000Y-78740000D02*
X138285300Y-78740000D01*
X132080000Y-59971300D02*
X130656200Y-58547500D01*
X130656200Y-58547500D02*
X127152500Y-58547500D01*
X127152500Y-58547500D02*
X124748600Y-60951400D01*
X124748600Y-60951400D02*
X122634700Y-60951400D01*
X122634700Y-60951400D02*
X115220700Y-53537400D01*
X115220700Y-53537400D02*
X115220700Y-49843900D01*
X115220700Y-49843900D02*
X114482900Y-49106100D01*
X114482900Y-49106100D02*
X102654100Y-49106100D01*
X102654100Y-49106100D02*
X89459500Y-62300700D01*
X89459500Y-62300700D02*
X88471200Y-62300700D01*
X88471200Y-62300700D02*
X85857200Y-64914700D01*
X85857200Y-64914700D02*
X81280000Y-64914700D01*
X132080000Y-59971300D02*
X132080000Y-60815300D01*
X132080000Y-59690000D02*
X132080000Y-59971300D01*
X66040000Y-132080000D02*
X66040000Y-130904700D01*
X81280000Y-66040000D02*
X81280000Y-64914700D01*
X81280000Y-64914700D02*
X80858000Y-64914700D01*
X80858000Y-64914700D02*
X80054600Y-64111300D01*
X80054600Y-64111300D02*
X80054600Y-63202700D01*
X80054600Y-63202700D02*
X76674000Y-59822100D01*
X76674000Y-59822100D02*
X75699900Y-59822100D01*
X75699900Y-59822100D02*
X74107800Y-61414200D01*
X74107800Y-61414200D02*
X74107800Y-62254500D01*
X74107800Y-62254500D02*
X66512300Y-69850000D01*
X66512300Y-69850000D02*
X65585400Y-69850000D01*
X65585400Y-69850000D02*
X64839400Y-70596000D01*
X64839400Y-70596000D02*
X64839400Y-119845600D01*
X64839400Y-119845600D02*
X65643800Y-120650000D01*
X65643800Y-120650000D02*
X66527900Y-120650000D01*
X66527900Y-120650000D02*
X67215300Y-121337400D01*
X67215300Y-121337400D02*
X67215300Y-130096800D01*
X67215300Y-130096800D02*
X66407400Y-130904700D01*
X66407400Y-130904700D02*
X66040000Y-130904700D01*
X137160000Y-73660000D02*
X137160000Y-72534700D01*
X137160000Y-72534700D02*
X136456600Y-72534700D01*
X136456600Y-72534700D02*
X136034700Y-72112800D01*
X136034700Y-72112800D02*
X136034700Y-64770000D01*
X136034700Y-64770000D02*
X132080000Y-60815300D01*
X205740000Y-68580000D02*
X204564700Y-68580000D01*
X177800000Y-48260000D02*
X178925300Y-48260000D01*
X178925300Y-48260000D02*
X180050600Y-49385300D01*
X180050600Y-49385300D02*
X185663800Y-49385300D01*
X185663800Y-49385300D02*
X204564700Y-68286200D01*
X204564700Y-68286200D02*
X204564700Y-68580000D01*
X205740000Y-78740000D02*
X205740000Y-77564700D01*
X185420000Y-53340000D02*
X185420000Y-54465300D01*
X185420000Y-54465300D02*
X185701400Y-54465300D01*
X185701400Y-54465300D02*
X204564700Y-73328600D01*
X204564700Y-73328600D02*
X204564700Y-76756800D01*
X204564700Y-76756800D02*
X205372600Y-77564700D01*
X205372600Y-77564700D02*
X205740000Y-77564700D01*
X205740000Y-81280000D02*
X205740000Y-80104700D01*
X185420000Y-58420000D02*
X185420000Y-59545300D01*
X185420000Y-59545300D02*
X185701400Y-59545300D01*
X185701400Y-59545300D02*
X204564700Y-78408600D01*
X204564700Y-78408600D02*
X204564700Y-79296800D01*
X204564700Y-79296800D02*
X205372600Y-80104700D01*
X205372600Y-80104700D02*
X205740000Y-80104700D01*
X205740000Y-83820000D02*
X205740000Y-82644700D01*
X185420000Y-63500000D02*
X186545300Y-63500000D01*
X186545300Y-63500000D02*
X186545300Y-63781300D01*
X186545300Y-63781300D02*
X205408700Y-82644700D01*
X205408700Y-82644700D02*
X205740000Y-82644700D01*
X191770000Y-133494700D02*
X192895300Y-132369400D01*
X192895300Y-132369400D02*
X192895300Y-131128700D01*
X192895300Y-131128700D02*
X197024000Y-127000000D01*
X197024000Y-127000000D02*
X205740000Y-127000000D01*
X191770000Y-134620000D02*
X191770000Y-133494700D01*
X205740000Y-114300000D02*
X205740000Y-113124700D01*
X179070000Y-106680000D02*
X180245300Y-106680000D01*
X180245300Y-106680000D02*
X180245300Y-106312700D01*
X180245300Y-106312700D02*
X187455200Y-99102800D01*
X187455200Y-99102800D02*
X194275800Y-99102800D01*
X194275800Y-99102800D02*
X204564700Y-109391700D01*
X204564700Y-109391700D02*
X204564700Y-112316800D01*
X204564700Y-112316800D02*
X205372600Y-113124700D01*
X205372600Y-113124700D02*
X205740000Y-113124700D01*
X149860000Y-134620000D02*
X151559600Y-136319600D01*
X151559600Y-136319600D02*
X184198200Y-136319600D01*
X184198200Y-136319600D02*
X194767300Y-125750500D01*
X194767300Y-125750500D02*
X206291000Y-125750500D01*
X206291000Y-125750500D02*
X207626100Y-124415400D01*
X207626100Y-124415400D02*
X207626100Y-119460700D01*
X207626100Y-119460700D02*
X206180700Y-118015300D01*
X206180700Y-118015300D02*
X205740000Y-118015300D01*
X205740000Y-116840000D02*
X205740000Y-118015300D01*
X105410000Y-81280000D02*
X105410000Y-80104700D01*
X99060000Y-73660000D02*
X99060000Y-74785300D01*
X105410000Y-80104700D02*
X100090600Y-74785300D01*
X100090600Y-74785300D02*
X99060000Y-74785300D01*
X113030000Y-66040000D02*
X114205300Y-66040000D01*
X114205300Y-66040000D02*
X118015300Y-69850000D01*
X118015300Y-69850000D02*
X119773300Y-69850000D01*
X119773300Y-69850000D02*
X123517100Y-73593800D01*
X123517100Y-73593800D02*
X123517100Y-75257100D01*
X123517100Y-75257100D02*
X129540000Y-81280000D01*
X113030000Y-59690000D02*
X113030000Y-60815300D01*
X113030000Y-68580000D02*
X113030000Y-67404700D01*
X113030000Y-67404700D02*
X112222000Y-67404700D01*
X112222000Y-67404700D02*
X111854600Y-67037300D01*
X111854600Y-67037300D02*
X111854600Y-61990700D01*
X111854600Y-61990700D02*
X113030000Y-60815300D01*
X113030000Y-71120000D02*
X114205300Y-71120000D01*
X121920000Y-78740000D02*
X120794700Y-78740000D01*
X120794700Y-78740000D02*
X114205300Y-72150600D01*
X114205300Y-72150600D02*
X114205300Y-71120000D01*
X123052500Y-80118500D02*
X121036900Y-80118500D01*
X121036900Y-80118500D02*
X120615100Y-80540300D01*
X129540000Y-90314700D02*
X129258700Y-90314700D01*
X129258700Y-90314700D02*
X123052500Y-84108500D01*
X123052500Y-84108500D02*
X123052500Y-80118500D01*
X119380000Y-72295300D02*
X123052500Y-75967800D01*
X123052500Y-75967800D02*
X123052500Y-80118500D01*
X129540000Y-91440000D02*
X129540000Y-90314700D01*
X119380000Y-71120000D02*
X119380000Y-72295300D01*
X113030000Y-58081000D02*
X105295000Y-58081000D01*
X105295000Y-58081000D02*
X101065500Y-62310500D01*
X101065500Y-62310500D02*
X93754800Y-62310500D01*
X93754800Y-62310500D02*
X90025300Y-66040000D01*
X119380000Y-67404700D02*
X118571900Y-67404700D01*
X118571900Y-67404700D02*
X118204700Y-67037500D01*
X118204700Y-67037500D02*
X118204700Y-63255700D01*
X118204700Y-63255700D02*
X113030000Y-58081000D01*
X113030000Y-58081000D02*
X113030000Y-57005300D01*
X88900000Y-66040000D02*
X90025300Y-66040000D01*
X119380000Y-68580000D02*
X119380000Y-67404700D01*
X113030000Y-55880000D02*
X113030000Y-57005300D01*
X129540000Y-88900000D02*
X129540000Y-87774700D01*
X119380000Y-66040000D02*
X126462900Y-73122900D01*
X126462900Y-73122900D02*
X126462900Y-77395900D01*
X126462900Y-77395900D02*
X129147700Y-80080700D01*
X129147700Y-80080700D02*
X129952900Y-80080700D01*
X129952900Y-80080700D02*
X130666300Y-80794100D01*
X130666300Y-80794100D02*
X130666300Y-81829500D01*
X130666300Y-81829500D02*
X129945800Y-82550000D01*
X129945800Y-82550000D02*
X129180100Y-82550000D01*
X129180100Y-82550000D02*
X128414700Y-83315400D01*
X128414700Y-83315400D02*
X128414700Y-86930800D01*
X128414700Y-86930800D02*
X129258600Y-87774700D01*
X129258600Y-87774700D02*
X129540000Y-87774700D01*
X163830000Y-53340000D02*
X163830000Y-52214700D01*
X163830000Y-39370000D02*
X165005300Y-39370000D01*
X165005300Y-39370000D02*
X166232200Y-38143100D01*
X166232200Y-38143100D02*
X171443900Y-38143100D01*
X171443900Y-38143100D02*
X172145000Y-38844200D01*
X172145000Y-38844200D02*
X172145000Y-40199100D01*
X172145000Y-40199100D02*
X167039600Y-45304500D01*
X167039600Y-45304500D02*
X167039600Y-49286400D01*
X167039600Y-49286400D02*
X164111300Y-52214700D01*
X164111300Y-52214700D02*
X163830000Y-52214700D01*
X167640000Y-106680000D02*
X167640000Y-111760000D01*
X152400000Y-125874700D02*
X152400000Y-122868300D01*
X152400000Y-122868300D02*
X157158300Y-118110000D01*
X157158300Y-118110000D02*
X157819800Y-118110000D01*
X157819800Y-118110000D02*
X163924700Y-112005100D01*
X163924700Y-112005100D02*
X163924700Y-111760000D01*
X152400000Y-127000000D02*
X152400000Y-125874700D01*
X165100000Y-111760000D02*
X163924700Y-111760000D01*
X140502000Y-47372000D02*
X130170000Y-37040000D01*
X106680000Y-63500000D02*
X105554700Y-63500000D01*
X105554700Y-63500000D02*
X104147900Y-64906800D01*
X104147900Y-64906800D02*
X98460200Y-64906800D01*
X98460200Y-64906800D02*
X92247000Y-71120000D01*
X92247000Y-71120000D02*
X88900000Y-71120000D01*
X92565300Y-96520000D02*
X96375300Y-100330000D01*
X96375300Y-100330000D02*
X100040500Y-100330000D01*
X100040500Y-100330000D02*
X112640900Y-112930400D01*
X112640900Y-112930400D02*
X115721400Y-112930400D01*
X115721400Y-112930400D02*
X115816400Y-112835400D01*
X91440000Y-96520000D02*
X92565300Y-96520000D01*
X114300000Y-93980000D02*
X114300000Y-95105300D01*
X121920000Y-104140000D02*
X115665900Y-110394100D01*
X115665900Y-110394100D02*
X113807900Y-110394100D01*
X113807900Y-110394100D02*
X113136400Y-109722600D01*
X113136400Y-109722600D02*
X113136400Y-108735700D01*
X113136400Y-108735700D02*
X113919300Y-107952800D01*
X113919300Y-107952800D02*
X114633800Y-107952800D01*
X114633800Y-107952800D02*
X115462000Y-107124600D01*
X115462000Y-107124600D02*
X115462000Y-103674300D01*
X115462000Y-103674300D02*
X114657700Y-102870000D01*
X114657700Y-102870000D02*
X113916100Y-102870000D01*
X113916100Y-102870000D02*
X113174700Y-102128600D01*
X113174700Y-102128600D02*
X113174700Y-95949200D01*
X113174700Y-95949200D02*
X114018600Y-95105300D01*
X114018600Y-95105300D02*
X114300000Y-95105300D01*
X88900000Y-68580000D02*
X88900000Y-69705300D01*
X91440000Y-91440000D02*
X91440000Y-90314700D01*
X91440000Y-90314700D02*
X91158700Y-90314700D01*
X91158700Y-90314700D02*
X87662200Y-86818200D01*
X87662200Y-86818200D02*
X87662200Y-70661800D01*
X87662200Y-70661800D02*
X88618700Y-69705300D01*
X88618700Y-69705300D02*
X88900000Y-69705300D01*
X129540000Y-93980000D02*
X128414700Y-93980000D01*
X101462600Y-63862200D02*
X105609200Y-59715600D01*
X105609200Y-59715600D02*
X107265700Y-59715600D01*
X107265700Y-59715600D02*
X110931300Y-63381200D01*
X110931300Y-63381200D02*
X110931300Y-73266100D01*
X110931300Y-73266100D02*
X117862100Y-80196900D01*
X117862100Y-80196900D02*
X117862100Y-86463500D01*
X117862100Y-86463500D02*
X121497900Y-90099300D01*
X121497900Y-90099300D02*
X124534000Y-90099300D01*
X124534000Y-90099300D02*
X128414700Y-93980000D01*
X163830000Y-55880000D02*
X163830000Y-54754700D01*
X175260000Y-39370000D02*
X167799300Y-46830700D01*
X167799300Y-46830700D02*
X167799300Y-51066700D01*
X167799300Y-51066700D02*
X164111300Y-54754700D01*
X164111300Y-54754700D02*
X163830000Y-54754700D01*
X163830000Y-92854700D02*
X164034300Y-92854700D01*
X164034300Y-92854700D02*
X166806500Y-90082500D01*
X166806500Y-90082500D02*
X166806500Y-63984500D01*
X166806500Y-63984500D02*
X171245700Y-59545300D01*
X171245700Y-59545300D02*
X171450000Y-59545300D01*
X171450000Y-58420000D02*
X171450000Y-59545300D01*
X163830000Y-93980000D02*
X163830000Y-92854700D01*
X171450000Y-48260000D02*
X171450000Y-49385300D01*
X163830000Y-88900000D02*
X163830000Y-87774700D01*
X163830000Y-87774700D02*
X164111400Y-87774700D01*
X164111400Y-87774700D02*
X164955300Y-86930800D01*
X164955300Y-86930800D02*
X164955300Y-84074100D01*
X164955300Y-84074100D02*
X165771800Y-83257600D01*
X165771800Y-83257600D02*
X165771800Y-59901600D01*
X165771800Y-59901600D02*
X171063400Y-54610000D01*
X171063400Y-54610000D02*
X171819400Y-54610000D01*
X171819400Y-54610000D02*
X172575300Y-53854100D01*
X172575300Y-53854100D02*
X172575300Y-50229200D01*
X172575300Y-50229200D02*
X171731400Y-49385300D01*
X171731400Y-49385300D02*
X171450000Y-49385300D01*
X171450000Y-96520000D02*
X171450000Y-95394700D01*
X169609400Y-87677100D02*
X169336300Y-87950200D01*
X169336300Y-87950200D02*
X169336300Y-93562300D01*
X169336300Y-93562300D02*
X171168700Y-95394700D01*
X171168700Y-95394700D02*
X171450000Y-95394700D01*
X160406700Y-132715100D02*
X169221700Y-123900100D01*
X169221700Y-123900100D02*
X169221700Y-114446700D01*
X169221700Y-114446700D02*
X173075600Y-110592800D01*
X173075600Y-110592800D02*
X173075600Y-99270900D01*
X173075600Y-99270900D02*
X171450000Y-97645300D01*
X171450000Y-96520000D02*
X171450000Y-97645300D01*
X171450000Y-93980000D02*
X169839100Y-92369100D01*
X169839100Y-92369100D02*
X169839100Y-88896200D01*
X169839100Y-88896200D02*
X170960900Y-87774400D01*
X170960900Y-87774400D02*
X171700500Y-87774400D01*
X171700500Y-87774400D02*
X172619200Y-86855700D01*
X172619200Y-86855700D02*
X172619200Y-83325500D01*
X172619200Y-83325500D02*
X171914400Y-82620700D01*
X171914400Y-82620700D02*
X171043000Y-82620700D01*
X171043000Y-82620700D02*
X169581400Y-81159100D01*
X169581400Y-81159100D02*
X169581400Y-77743200D01*
X169581400Y-77743200D02*
X168954600Y-77116400D01*
X168954600Y-77116400D02*
X168954600Y-64243300D01*
X168954600Y-64243300D02*
X171038600Y-62159300D01*
X171038600Y-62159300D02*
X171852700Y-62159300D01*
X171852700Y-62159300D02*
X173707200Y-60304800D01*
X173707200Y-60304800D02*
X173707200Y-50656700D01*
X173707200Y-50656700D02*
X177518600Y-46845300D01*
X177518600Y-46845300D02*
X177800000Y-46845300D01*
X177800000Y-45720000D02*
X177800000Y-46845300D01*
X171450000Y-91440000D02*
X176443300Y-96433300D01*
X176443300Y-96433300D02*
X176443300Y-108738200D01*
X171450000Y-84945300D02*
X171241000Y-84945300D01*
X171241000Y-84945300D02*
X168884100Y-87302200D01*
X168884100Y-87302200D02*
X168884100Y-98777100D01*
X168884100Y-98777100D02*
X172625300Y-102518300D01*
X172625300Y-102518300D02*
X172625300Y-110218600D01*
X172625300Y-110218600D02*
X164654300Y-118189600D01*
X164654300Y-118189600D02*
X164654300Y-122555000D01*
X171450000Y-83820000D02*
X171450000Y-84945300D01*
X150985300Y-127000000D02*
X150985300Y-127281400D01*
X150985300Y-127281400D02*
X151829200Y-128125300D01*
X151829200Y-128125300D02*
X152871400Y-128125300D01*
X152871400Y-128125300D02*
X153743900Y-127252800D01*
X153743900Y-127252800D02*
X153743900Y-123447200D01*
X153743900Y-123447200D02*
X156536700Y-120654400D01*
X156536700Y-120654400D02*
X162753700Y-120654400D01*
X162753700Y-120654400D02*
X164654300Y-122555000D01*
X149860000Y-127000000D02*
X150985300Y-127000000D01*
X106680000Y-66040000D02*
X106680000Y-67165300D01*
X107950000Y-81280000D02*
X107950000Y-75872500D01*
X107950000Y-75872500D02*
X107007500Y-74930000D01*
X107007500Y-74930000D02*
X106287000Y-74930000D01*
X106287000Y-74930000D02*
X105554700Y-74197700D01*
X105554700Y-74197700D02*
X105554700Y-68009200D01*
X105554700Y-68009200D02*
X106398600Y-67165300D01*
X106398600Y-67165300D02*
X106680000Y-67165300D01*
X99060000Y-71120000D02*
X99060000Y-69994700D01*
X99060000Y-66040000D02*
X99060000Y-67165300D01*
X99060000Y-67165300D02*
X98778700Y-67165300D01*
X98778700Y-67165300D02*
X97934700Y-68009300D01*
X97934700Y-68009300D02*
X97934700Y-69150800D01*
X97934700Y-69150800D02*
X98778600Y-69994700D01*
X98778600Y-69994700D02*
X99060000Y-69994700D01*
X104084000Y-87485300D02*
X93690600Y-87485300D01*
X93690600Y-87485300D02*
X92565300Y-86360000D01*
X114300000Y-105554700D02*
X114018700Y-105554700D01*
X114018700Y-105554700D02*
X109222500Y-100758500D01*
X109222500Y-100758500D02*
X109222500Y-92623800D01*
X109222500Y-92623800D02*
X104084000Y-87485300D01*
X104084000Y-87485300D02*
X109163300Y-82406000D01*
X109163300Y-82406000D02*
X109163300Y-71907300D01*
X109163300Y-71907300D02*
X106961300Y-69705300D01*
X106961300Y-69705300D02*
X106680000Y-69705300D01*
X106680000Y-68580000D02*
X106680000Y-69705300D01*
X91440000Y-86360000D02*
X92565300Y-86360000D01*
X114300000Y-106680000D02*
X114300000Y-105554700D01*
X106680000Y-76200000D02*
X105554700Y-76200000D01*
X105554700Y-76200000D02*
X105554700Y-75074700D01*
X105554700Y-75074700D02*
X99060000Y-68580000D01*
X97934700Y-63500000D02*
X94124700Y-67310000D01*
X94124700Y-67310000D02*
X88474000Y-67310000D01*
X88474000Y-67310000D02*
X82405300Y-73378700D01*
X82405300Y-73378700D02*
X82405300Y-73660000D01*
X81280000Y-73660000D02*
X82405300Y-73660000D01*
X99060000Y-63500000D02*
X97934700Y-63500000D01*
X142240000Y-55880000D02*
X139700000Y-58420000D01*
X139700000Y-58420000D02*
X139700000Y-59690000D01*
X137160000Y-71120000D02*
X137160000Y-69994700D01*
X137160000Y-69994700D02*
X142240000Y-64914700D01*
X142240000Y-64914700D02*
X142240000Y-64770000D01*
X142240000Y-64770000D02*
X139700000Y-62230000D01*
X139700000Y-62230000D02*
X139700000Y-59690000D01*
M02*
