G04 #@! TF.GenerationSoftware,KiCad,Pcbnew,(5.1.5-0-10_14)*
G04 #@! TF.CreationDate,2021-03-05T21:15:02+01:00*
G04 #@! TF.ProjectId,RCA2020-Mk1,52434132-3032-4302-9d4d-6b312e6b6963,4*
G04 #@! TF.SameCoordinates,Original*
G04 #@! TF.FileFunction,Legend,Bot*
G04 #@! TF.FilePolarity,Positive*
%FSLAX46Y46*%
G04 Gerber Fmt 4.6, Leading zero omitted, Abs format (unit mm)*
G04 Created by KiCad (PCBNEW (5.1.5-0-10_14)) date 2021-03-05 21:15:02*
%MOMM*%
%LPD*%
G04 APERTURE LIST*
%ADD10C,0.150000*%
G04 APERTURE END LIST*
D10*
X156653928Y-39453619D02*
X156953928Y-38929809D01*
X157168214Y-39453619D02*
X157168214Y-38353619D01*
X156825357Y-38353619D01*
X156739642Y-38406000D01*
X156696785Y-38458380D01*
X156653928Y-38563142D01*
X156653928Y-38720285D01*
X156696785Y-38825047D01*
X156739642Y-38877428D01*
X156825357Y-38929809D01*
X157168214Y-38929809D01*
X155753928Y-39348857D02*
X155796785Y-39401238D01*
X155925357Y-39453619D01*
X156011071Y-39453619D01*
X156139642Y-39401238D01*
X156225357Y-39296476D01*
X156268214Y-39191714D01*
X156311071Y-38982190D01*
X156311071Y-38825047D01*
X156268214Y-38615523D01*
X156225357Y-38510761D01*
X156139642Y-38406000D01*
X156011071Y-38353619D01*
X155925357Y-38353619D01*
X155796785Y-38406000D01*
X155753928Y-38458380D01*
X155411071Y-39139333D02*
X154982500Y-39139333D01*
X155496785Y-39453619D02*
X155196785Y-38353619D01*
X154896785Y-39453619D01*
X154639642Y-38458380D02*
X154596785Y-38406000D01*
X154511071Y-38353619D01*
X154296785Y-38353619D01*
X154211071Y-38406000D01*
X154168214Y-38458380D01*
X154125357Y-38563142D01*
X154125357Y-38667904D01*
X154168214Y-38825047D01*
X154682500Y-39453619D01*
X154125357Y-39453619D01*
X153568214Y-38353619D02*
X153482500Y-38353619D01*
X153396785Y-38406000D01*
X153353928Y-38458380D01*
X153311071Y-38563142D01*
X153268214Y-38772666D01*
X153268214Y-39034571D01*
X153311071Y-39244095D01*
X153353928Y-39348857D01*
X153396785Y-39401238D01*
X153482500Y-39453619D01*
X153568214Y-39453619D01*
X153653928Y-39401238D01*
X153696785Y-39348857D01*
X153739642Y-39244095D01*
X153782500Y-39034571D01*
X153782500Y-38772666D01*
X153739642Y-38563142D01*
X153696785Y-38458380D01*
X153653928Y-38406000D01*
X153568214Y-38353619D01*
X152925357Y-38458380D02*
X152882500Y-38406000D01*
X152796785Y-38353619D01*
X152582500Y-38353619D01*
X152496785Y-38406000D01*
X152453928Y-38458380D01*
X152411071Y-38563142D01*
X152411071Y-38667904D01*
X152453928Y-38825047D01*
X152968214Y-39453619D01*
X152411071Y-39453619D01*
X151853928Y-38353619D02*
X151768214Y-38353619D01*
X151682500Y-38406000D01*
X151639642Y-38458380D01*
X151596785Y-38563142D01*
X151553928Y-38772666D01*
X151553928Y-39034571D01*
X151596785Y-39244095D01*
X151639642Y-39348857D01*
X151682500Y-39401238D01*
X151768214Y-39453619D01*
X151853928Y-39453619D01*
X151939642Y-39401238D01*
X151982500Y-39348857D01*
X152025357Y-39244095D01*
X152068214Y-39034571D01*
X152068214Y-38772666D01*
X152025357Y-38563142D01*
X151982500Y-38458380D01*
X151939642Y-38406000D01*
X151853928Y-38353619D01*
X150482500Y-39034571D02*
X149796785Y-39034571D01*
X148682500Y-39453619D02*
X148682500Y-38353619D01*
X148382500Y-39139333D01*
X148082500Y-38353619D01*
X148082500Y-39453619D01*
X147653928Y-39453619D02*
X147653928Y-38353619D01*
X147568214Y-39034571D02*
X147311071Y-39453619D01*
X147311071Y-38720285D02*
X147653928Y-39139333D01*
X146453928Y-39453619D02*
X146968214Y-39453619D01*
X146711071Y-39453619D02*
X146711071Y-38353619D01*
X146796785Y-38510761D01*
X146882500Y-38615523D01*
X146968214Y-38667904D01*
X156653928Y-43053619D02*
X156953928Y-42529809D01*
X157168214Y-43053619D02*
X157168214Y-41953619D01*
X156825357Y-41953619D01*
X156739642Y-42006000D01*
X156696785Y-42058380D01*
X156653928Y-42163142D01*
X156653928Y-42320285D01*
X156696785Y-42425047D01*
X156739642Y-42477428D01*
X156825357Y-42529809D01*
X157168214Y-42529809D01*
X155753928Y-42948857D02*
X155796785Y-43001238D01*
X155925357Y-43053619D01*
X156011071Y-43053619D01*
X156139642Y-43001238D01*
X156225357Y-42896476D01*
X156268214Y-42791714D01*
X156311071Y-42582190D01*
X156311071Y-42425047D01*
X156268214Y-42215523D01*
X156225357Y-42110761D01*
X156139642Y-42006000D01*
X156011071Y-41953619D01*
X155925357Y-41953619D01*
X155796785Y-42006000D01*
X155753928Y-42058380D01*
X155411071Y-42739333D02*
X154982500Y-42739333D01*
X155496785Y-43053619D02*
X155196785Y-41953619D01*
X154896785Y-43053619D01*
X153396785Y-42948857D02*
X153439642Y-43001238D01*
X153568214Y-43053619D01*
X153653928Y-43053619D01*
X153782500Y-43001238D01*
X153868214Y-42896476D01*
X153911071Y-42791714D01*
X153953928Y-42582190D01*
X153953928Y-42425047D01*
X153911071Y-42215523D01*
X153868214Y-42110761D01*
X153782500Y-42006000D01*
X153653928Y-41953619D01*
X153568214Y-41953619D01*
X153439642Y-42006000D01*
X153396785Y-42058380D01*
X153011071Y-43053619D02*
X153011071Y-41953619D01*
X152796785Y-41953619D01*
X152668214Y-42006000D01*
X152582500Y-42110761D01*
X152539642Y-42215523D01*
X152496785Y-42425047D01*
X152496785Y-42582190D01*
X152539642Y-42791714D01*
X152582500Y-42896476D01*
X152668214Y-43001238D01*
X152796785Y-43053619D01*
X153011071Y-43053619D01*
X152111071Y-43053619D02*
X152111071Y-41953619D01*
X151768214Y-41953619D01*
X151682500Y-42006000D01*
X151639642Y-42058380D01*
X151596785Y-42163142D01*
X151596785Y-42320285D01*
X151639642Y-42425047D01*
X151682500Y-42477428D01*
X151768214Y-42529809D01*
X152111071Y-42529809D01*
X150739642Y-43053619D02*
X151253928Y-43053619D01*
X150996785Y-43053619D02*
X150996785Y-41953619D01*
X151082500Y-42110761D01*
X151168214Y-42215523D01*
X151253928Y-42267904D01*
X150225357Y-42425047D02*
X150311071Y-42372666D01*
X150353928Y-42320285D01*
X150396785Y-42215523D01*
X150396785Y-42163142D01*
X150353928Y-42058380D01*
X150311071Y-42006000D01*
X150225357Y-41953619D01*
X150053928Y-41953619D01*
X149968214Y-42006000D01*
X149925357Y-42058380D01*
X149882500Y-42163142D01*
X149882500Y-42215523D01*
X149925357Y-42320285D01*
X149968214Y-42372666D01*
X150053928Y-42425047D01*
X150225357Y-42425047D01*
X150311071Y-42477428D01*
X150353928Y-42529809D01*
X150396785Y-42634571D01*
X150396785Y-42844095D01*
X150353928Y-42948857D01*
X150311071Y-43001238D01*
X150225357Y-43053619D01*
X150053928Y-43053619D01*
X149968214Y-43001238D01*
X149925357Y-42948857D01*
X149882500Y-42844095D01*
X149882500Y-42634571D01*
X149925357Y-42529809D01*
X149968214Y-42477428D01*
X150053928Y-42425047D01*
X149325357Y-41953619D02*
X149239642Y-41953619D01*
X149153928Y-42006000D01*
X149111071Y-42058380D01*
X149068214Y-42163142D01*
X149025357Y-42372666D01*
X149025357Y-42634571D01*
X149068214Y-42844095D01*
X149111071Y-42948857D01*
X149153928Y-43001238D01*
X149239642Y-43053619D01*
X149325357Y-43053619D01*
X149411071Y-43001238D01*
X149453928Y-42948857D01*
X149496785Y-42844095D01*
X149539642Y-42634571D01*
X149539642Y-42372666D01*
X149496785Y-42163142D01*
X149453928Y-42058380D01*
X149411071Y-42006000D01*
X149325357Y-41953619D01*
X148682500Y-42058380D02*
X148639642Y-42006000D01*
X148553928Y-41953619D01*
X148339642Y-41953619D01*
X148253928Y-42006000D01*
X148211071Y-42058380D01*
X148168214Y-42163142D01*
X148168214Y-42267904D01*
X148211071Y-42425047D01*
X148725357Y-43053619D01*
X148168214Y-43053619D01*
X146582500Y-42948857D02*
X146625357Y-43001238D01*
X146753928Y-43053619D01*
X146839642Y-43053619D01*
X146968214Y-43001238D01*
X147053928Y-42896476D01*
X147096785Y-42791714D01*
X147139642Y-42582190D01*
X147139642Y-42425047D01*
X147096785Y-42215523D01*
X147053928Y-42110761D01*
X146968214Y-42006000D01*
X146839642Y-41953619D01*
X146753928Y-41953619D01*
X146625357Y-42006000D01*
X146582500Y-42058380D01*
X146025357Y-41953619D02*
X145853928Y-41953619D01*
X145768214Y-42006000D01*
X145682500Y-42110761D01*
X145639642Y-42320285D01*
X145639642Y-42686952D01*
X145682500Y-42896476D01*
X145768214Y-43001238D01*
X145853928Y-43053619D01*
X146025357Y-43053619D01*
X146111071Y-43001238D01*
X146196785Y-42896476D01*
X146239642Y-42686952D01*
X146239642Y-42320285D01*
X146196785Y-42110761D01*
X146111071Y-42006000D01*
X146025357Y-41953619D01*
X145296785Y-43001238D02*
X145168214Y-43053619D01*
X144953928Y-43053619D01*
X144868214Y-43001238D01*
X144825357Y-42948857D01*
X144782500Y-42844095D01*
X144782500Y-42739333D01*
X144825357Y-42634571D01*
X144868214Y-42582190D01*
X144953928Y-42529809D01*
X145125357Y-42477428D01*
X145211071Y-42425047D01*
X145253928Y-42372666D01*
X145296785Y-42267904D01*
X145296785Y-42163142D01*
X145253928Y-42058380D01*
X145211071Y-42006000D01*
X145125357Y-41953619D01*
X144911071Y-41953619D01*
X144782500Y-42006000D01*
X144396785Y-43053619D02*
X144396785Y-41953619D01*
X144096785Y-42739333D01*
X143796785Y-41953619D01*
X143796785Y-43053619D01*
X143411071Y-42739333D02*
X142982500Y-42739333D01*
X143496785Y-43053619D02*
X143196785Y-41953619D01*
X142896785Y-43053619D01*
X142082500Y-42948857D02*
X142125357Y-43001238D01*
X142253928Y-43053619D01*
X142339642Y-43053619D01*
X142468214Y-43001238D01*
X142553928Y-42896476D01*
X142596785Y-42791714D01*
X142639642Y-42582190D01*
X142639642Y-42425047D01*
X142596785Y-42215523D01*
X142553928Y-42110761D01*
X142468214Y-42006000D01*
X142339642Y-41953619D01*
X142253928Y-41953619D01*
X142125357Y-42006000D01*
X142082500Y-42058380D01*
X141011071Y-43053619D02*
X141011071Y-42320285D01*
X141011071Y-42529809D02*
X140968214Y-42425047D01*
X140925357Y-42372666D01*
X140839642Y-42320285D01*
X140753928Y-42320285D01*
X140111071Y-43001238D02*
X140196785Y-43053619D01*
X140368214Y-43053619D01*
X140453928Y-43001238D01*
X140496785Y-42896476D01*
X140496785Y-42477428D01*
X140453928Y-42372666D01*
X140368214Y-42320285D01*
X140196785Y-42320285D01*
X140111071Y-42372666D01*
X140068214Y-42477428D01*
X140068214Y-42582190D01*
X140496785Y-42686952D01*
X139768214Y-42320285D02*
X139553928Y-43053619D01*
X139339642Y-42320285D01*
X138996785Y-43053619D02*
X138996785Y-42320285D01*
X138996785Y-41953619D02*
X139039642Y-42006000D01*
X138996785Y-42058380D01*
X138953928Y-42006000D01*
X138996785Y-41953619D01*
X138996785Y-42058380D01*
X138653928Y-42320285D02*
X138439642Y-43053619D01*
X138225357Y-42320285D01*
X137496785Y-43053619D02*
X137496785Y-42477428D01*
X137539642Y-42372666D01*
X137625357Y-42320285D01*
X137796785Y-42320285D01*
X137882500Y-42372666D01*
X137496785Y-43001238D02*
X137582500Y-43053619D01*
X137796785Y-43053619D01*
X137882500Y-43001238D01*
X137925357Y-42896476D01*
X137925357Y-42791714D01*
X137882500Y-42686952D01*
X137796785Y-42634571D01*
X137582500Y-42634571D01*
X137496785Y-42582190D01*
X136939642Y-43053619D02*
X137025357Y-43001238D01*
X137068214Y-42896476D01*
X137068214Y-41953619D01*
X135911071Y-42320285D02*
X135911071Y-43420285D01*
X135911071Y-42372666D02*
X135825357Y-42320285D01*
X135653928Y-42320285D01*
X135568214Y-42372666D01*
X135525357Y-42425047D01*
X135482500Y-42529809D01*
X135482500Y-42844095D01*
X135525357Y-42948857D01*
X135568214Y-43001238D01*
X135653928Y-43053619D01*
X135825357Y-43053619D01*
X135911071Y-43001238D01*
X135096785Y-43053619D02*
X135096785Y-42320285D01*
X135096785Y-42529809D02*
X135053928Y-42425047D01*
X135011071Y-42372666D01*
X134925357Y-42320285D01*
X134839642Y-42320285D01*
X134411071Y-43053619D02*
X134496785Y-43001238D01*
X134539642Y-42948857D01*
X134582500Y-42844095D01*
X134582500Y-42529809D01*
X134539642Y-42425047D01*
X134496785Y-42372666D01*
X134411071Y-42320285D01*
X134282500Y-42320285D01*
X134196785Y-42372666D01*
X134153928Y-42425047D01*
X134111071Y-42529809D01*
X134111071Y-42844095D01*
X134153928Y-42948857D01*
X134196785Y-43001238D01*
X134282500Y-43053619D01*
X134411071Y-43053619D01*
X133725357Y-42320285D02*
X133725357Y-43263142D01*
X133768214Y-43367904D01*
X133853928Y-43420285D01*
X133896785Y-43420285D01*
X133725357Y-41953619D02*
X133768214Y-42006000D01*
X133725357Y-42058380D01*
X133682500Y-42006000D01*
X133725357Y-41953619D01*
X133725357Y-42058380D01*
X132953928Y-43001238D02*
X133039642Y-43053619D01*
X133211071Y-43053619D01*
X133296785Y-43001238D01*
X133339642Y-42896476D01*
X133339642Y-42477428D01*
X133296785Y-42372666D01*
X133211071Y-42320285D01*
X133039642Y-42320285D01*
X132953928Y-42372666D01*
X132911071Y-42477428D01*
X132911071Y-42582190D01*
X133339642Y-42686952D01*
X132139642Y-43001238D02*
X132225357Y-43053619D01*
X132396785Y-43053619D01*
X132482500Y-43001238D01*
X132525357Y-42948857D01*
X132568214Y-42844095D01*
X132568214Y-42529809D01*
X132525357Y-42425047D01*
X132482500Y-42372666D01*
X132396785Y-42320285D01*
X132225357Y-42320285D01*
X132139642Y-42372666D01*
X131882500Y-42320285D02*
X131539642Y-42320285D01*
X131753928Y-41953619D02*
X131753928Y-42896476D01*
X131711071Y-43001238D01*
X131625357Y-43053619D01*
X131539642Y-43053619D01*
X157168214Y-44853619D02*
X157168214Y-43753619D01*
X156953928Y-43753619D01*
X156825357Y-43806000D01*
X156739642Y-43910761D01*
X156696785Y-44015523D01*
X156653928Y-44225047D01*
X156653928Y-44382190D01*
X156696785Y-44591714D01*
X156739642Y-44696476D01*
X156825357Y-44801238D01*
X156953928Y-44853619D01*
X157168214Y-44853619D01*
X155925357Y-44801238D02*
X156011071Y-44853619D01*
X156182500Y-44853619D01*
X156268214Y-44801238D01*
X156311071Y-44696476D01*
X156311071Y-44277428D01*
X156268214Y-44172666D01*
X156182500Y-44120285D01*
X156011071Y-44120285D01*
X155925357Y-44172666D01*
X155882500Y-44277428D01*
X155882500Y-44382190D01*
X156311071Y-44486952D01*
X155539642Y-44801238D02*
X155453928Y-44853619D01*
X155282500Y-44853619D01*
X155196785Y-44801238D01*
X155153928Y-44696476D01*
X155153928Y-44644095D01*
X155196785Y-44539333D01*
X155282500Y-44486952D01*
X155411071Y-44486952D01*
X155496785Y-44434571D01*
X155539642Y-44329809D01*
X155539642Y-44277428D01*
X155496785Y-44172666D01*
X155411071Y-44120285D01*
X155282500Y-44120285D01*
X155196785Y-44172666D01*
X154768214Y-44853619D02*
X154768214Y-44120285D01*
X154768214Y-43753619D02*
X154811071Y-43806000D01*
X154768214Y-43858380D01*
X154725357Y-43806000D01*
X154768214Y-43753619D01*
X154768214Y-43858380D01*
X153953928Y-44120285D02*
X153953928Y-45010761D01*
X153996785Y-45115523D01*
X154039642Y-45167904D01*
X154125357Y-45220285D01*
X154253928Y-45220285D01*
X154339642Y-45167904D01*
X153953928Y-44801238D02*
X154039642Y-44853619D01*
X154211071Y-44853619D01*
X154296785Y-44801238D01*
X154339642Y-44748857D01*
X154382500Y-44644095D01*
X154382500Y-44329809D01*
X154339642Y-44225047D01*
X154296785Y-44172666D01*
X154211071Y-44120285D01*
X154039642Y-44120285D01*
X153953928Y-44172666D01*
X153525357Y-44120285D02*
X153525357Y-44853619D01*
X153525357Y-44225047D02*
X153482500Y-44172666D01*
X153396785Y-44120285D01*
X153268214Y-44120285D01*
X153182500Y-44172666D01*
X153139642Y-44277428D01*
X153139642Y-44853619D01*
X152368214Y-44801238D02*
X152453928Y-44853619D01*
X152625357Y-44853619D01*
X152711071Y-44801238D01*
X152753928Y-44696476D01*
X152753928Y-44277428D01*
X152711071Y-44172666D01*
X152625357Y-44120285D01*
X152453928Y-44120285D01*
X152368214Y-44172666D01*
X152325357Y-44277428D01*
X152325357Y-44382190D01*
X152753928Y-44486952D01*
X151553928Y-44853619D02*
X151553928Y-43753619D01*
X151553928Y-44801238D02*
X151639642Y-44853619D01*
X151811071Y-44853619D01*
X151896785Y-44801238D01*
X151939642Y-44748857D01*
X151982500Y-44644095D01*
X151982500Y-44329809D01*
X151939642Y-44225047D01*
X151896785Y-44172666D01*
X151811071Y-44120285D01*
X151639642Y-44120285D01*
X151553928Y-44172666D01*
X150439642Y-44853619D02*
X150439642Y-43753619D01*
X150439642Y-44172666D02*
X150353928Y-44120285D01*
X150182500Y-44120285D01*
X150096785Y-44172666D01*
X150053928Y-44225047D01*
X150011071Y-44329809D01*
X150011071Y-44644095D01*
X150053928Y-44748857D01*
X150096785Y-44801238D01*
X150182500Y-44853619D01*
X150353928Y-44853619D01*
X150439642Y-44801238D01*
X149711071Y-44120285D02*
X149496785Y-44853619D01*
X149282500Y-44120285D02*
X149496785Y-44853619D01*
X149582500Y-45115523D01*
X149625357Y-45167904D01*
X149711071Y-45220285D01*
X147739642Y-44853619D02*
X148039642Y-44329809D01*
X148253928Y-44853619D02*
X148253928Y-43753619D01*
X147911071Y-43753619D01*
X147825357Y-43806000D01*
X147782500Y-43858380D01*
X147739642Y-43963142D01*
X147739642Y-44120285D01*
X147782500Y-44225047D01*
X147825357Y-44277428D01*
X147911071Y-44329809D01*
X148253928Y-44329809D01*
X147353928Y-44853619D02*
X147353928Y-44120285D01*
X147353928Y-43753619D02*
X147396785Y-43806000D01*
X147353928Y-43858380D01*
X147311071Y-43806000D01*
X147353928Y-43753619D01*
X147353928Y-43858380D01*
X146539642Y-44801238D02*
X146625357Y-44853619D01*
X146796785Y-44853619D01*
X146882500Y-44801238D01*
X146925357Y-44748857D01*
X146968214Y-44644095D01*
X146968214Y-44329809D01*
X146925357Y-44225047D01*
X146882500Y-44172666D01*
X146796785Y-44120285D01*
X146625357Y-44120285D01*
X146539642Y-44172666D01*
X146153928Y-44853619D02*
X146153928Y-43753619D01*
X145768214Y-44853619D02*
X145768214Y-44277428D01*
X145811071Y-44172666D01*
X145896785Y-44120285D01*
X146025357Y-44120285D01*
X146111071Y-44172666D01*
X146153928Y-44225047D01*
X144953928Y-44853619D02*
X144953928Y-44277428D01*
X144996785Y-44172666D01*
X145082500Y-44120285D01*
X145253928Y-44120285D01*
X145339642Y-44172666D01*
X144953928Y-44801238D02*
X145039642Y-44853619D01*
X145253928Y-44853619D01*
X145339642Y-44801238D01*
X145382500Y-44696476D01*
X145382500Y-44591714D01*
X145339642Y-44486952D01*
X145253928Y-44434571D01*
X145039642Y-44434571D01*
X144953928Y-44382190D01*
X144525357Y-44853619D02*
X144525357Y-44120285D01*
X144525357Y-44329809D02*
X144482500Y-44225047D01*
X144439642Y-44172666D01*
X144353928Y-44120285D01*
X144268214Y-44120285D01*
X143582500Y-44853619D02*
X143582500Y-43753619D01*
X143582500Y-44801238D02*
X143668214Y-44853619D01*
X143839642Y-44853619D01*
X143925357Y-44801238D01*
X143968214Y-44748857D01*
X144011071Y-44644095D01*
X144011071Y-44329809D01*
X143968214Y-44225047D01*
X143925357Y-44172666D01*
X143839642Y-44120285D01*
X143668214Y-44120285D01*
X143582500Y-44172666D01*
X142553928Y-44120285D02*
X142339642Y-44853619D01*
X142125357Y-44120285D01*
X141396785Y-44853619D02*
X141396785Y-44277428D01*
X141439642Y-44172666D01*
X141525357Y-44120285D01*
X141696785Y-44120285D01*
X141782500Y-44172666D01*
X141396785Y-44801238D02*
X141482500Y-44853619D01*
X141696785Y-44853619D01*
X141782500Y-44801238D01*
X141825357Y-44696476D01*
X141825357Y-44591714D01*
X141782500Y-44486952D01*
X141696785Y-44434571D01*
X141482500Y-44434571D01*
X141396785Y-44382190D01*
X140968214Y-44120285D02*
X140968214Y-44853619D01*
X140968214Y-44225047D02*
X140925357Y-44172666D01*
X140839642Y-44120285D01*
X140711071Y-44120285D01*
X140625357Y-44172666D01*
X140582500Y-44277428D01*
X140582500Y-44853619D01*
X139468214Y-44853619D02*
X139468214Y-43753619D01*
X139468214Y-44277428D02*
X138953928Y-44277428D01*
X138953928Y-44853619D02*
X138953928Y-43753619D01*
X138139642Y-44853619D02*
X138139642Y-44277428D01*
X138182500Y-44172666D01*
X138268214Y-44120285D01*
X138439642Y-44120285D01*
X138525357Y-44172666D01*
X138139642Y-44801238D02*
X138225357Y-44853619D01*
X138439642Y-44853619D01*
X138525357Y-44801238D01*
X138568214Y-44696476D01*
X138568214Y-44591714D01*
X138525357Y-44486952D01*
X138439642Y-44434571D01*
X138225357Y-44434571D01*
X138139642Y-44382190D01*
X137711071Y-44853619D02*
X137711071Y-44120285D01*
X137711071Y-44329809D02*
X137668214Y-44225047D01*
X137625357Y-44172666D01*
X137539642Y-44120285D01*
X137453928Y-44120285D01*
X136768214Y-44853619D02*
X136768214Y-43753619D01*
X136768214Y-44801238D02*
X136853928Y-44853619D01*
X137025357Y-44853619D01*
X137111071Y-44801238D01*
X137153928Y-44748857D01*
X137196785Y-44644095D01*
X137196785Y-44329809D01*
X137153928Y-44225047D01*
X137111071Y-44172666D01*
X137025357Y-44120285D01*
X136853928Y-44120285D01*
X136768214Y-44172666D01*
X135996785Y-44801238D02*
X136082500Y-44853619D01*
X136253928Y-44853619D01*
X136339642Y-44801238D01*
X136382500Y-44696476D01*
X136382500Y-44277428D01*
X136339642Y-44172666D01*
X136253928Y-44120285D01*
X136082500Y-44120285D01*
X135996785Y-44172666D01*
X135953928Y-44277428D01*
X135953928Y-44382190D01*
X136382500Y-44486952D01*
X135568214Y-44853619D02*
X135568214Y-44120285D01*
X135568214Y-44329809D02*
X135525357Y-44225047D01*
X135482500Y-44172666D01*
X135396785Y-44120285D01*
X135311071Y-44120285D01*
X135096785Y-44120285D02*
X134925357Y-44853619D01*
X134753928Y-44329809D01*
X134582500Y-44853619D01*
X134411071Y-44120285D01*
X134068214Y-44853619D02*
X134068214Y-44120285D01*
X134068214Y-43753619D02*
X134111071Y-43806000D01*
X134068214Y-43858380D01*
X134025357Y-43806000D01*
X134068214Y-43753619D01*
X134068214Y-43858380D01*
X133639642Y-44120285D02*
X133639642Y-45063142D01*
X133682500Y-45167904D01*
X133768214Y-45220285D01*
X133811071Y-45220285D01*
X133639642Y-43753619D02*
X133682500Y-43806000D01*
X133639642Y-43858380D01*
X133596785Y-43806000D01*
X133639642Y-43753619D01*
X133639642Y-43858380D01*
X133211071Y-44853619D02*
X133211071Y-43753619D01*
X133125357Y-44434571D02*
X132868214Y-44853619D01*
X132868214Y-44120285D02*
X133211071Y-44539333D01*
M02*
