M48
INCH,TZ
T1C0.0157
T2C0.0197
T3C0.0236
T4C0.0295
T5C0.0315
T6C0.0362
T7C0.0390
T8C0.0394
T9C0.0551
T10C0.0598
T11C0.0917
%
G90
G05
T1
X30866Y-21793
X31930Y-21905
X39946Y-25143
X42287Y-36157
X43981Y-28719
X45597Y-44423
X47486Y-31709
X52796Y-41140
X54567Y-35291
X55316Y-18650
X55782Y-46653
X56558Y-49628
X59224Y-36513
X60506Y-35278
X62278Y-21484
X62309Y-40896
X62391Y-41539
X62526Y-24905
X62989Y-17507
X63152Y-52250
X63475Y-19462
X64825Y-48250
X65260Y-33813
X66002Y-33862
X66336Y-30583
X66405Y-31518
X66775Y-34519
X68097Y-22537
X68244Y-48682
X68445Y-48304
X69466Y-42810
T2
X72500Y-42252
X72500Y-43000
T3
X49687Y-38194
X72018Y-50250
T4
X48900Y-52000
X49500Y-52000
X50100Y-52000
T5
X61000Y-25500
X61787Y-25500
X71500Y-51500
X75500Y-51500
X64500Y-32000
X64500Y-33000
X64500Y-34000
X64500Y-35000
X64500Y-36000
X64500Y-37000
X64500Y-38000
X67500Y-32000
X67500Y-33000
X67500Y-34000
X67500Y-35000
X67500Y-36000
X67500Y-37000
X67500Y-38000
X56000Y-50000
X56000Y-53000
X57000Y-50000
X57000Y-53000
X58000Y-50000
X58000Y-53000
X59000Y-50000
X59000Y-53000
X60000Y-50000
X60000Y-53000
X61000Y-50000
X61000Y-53000
X62000Y-50000
X62000Y-53000
X52000Y-19500
X52000Y-23500
X39000Y-24000
X39000Y-25000
X39000Y-26000
X39000Y-27000
X39000Y-28000
X39000Y-29000
X39000Y-30000
X42000Y-24000
X42000Y-25000
X42000Y-26000
X42000Y-27000
X42000Y-28000
X42000Y-29000
X42000Y-30000
X62000Y-44000
X62000Y-45000
X62000Y-46000
X62000Y-47000
X62000Y-48000
X50500Y-19500
X50500Y-23500
X71500Y-53000
X75500Y-53000
X39000Y-50000
X39000Y-53000
X40000Y-50000
X40000Y-53000
X41000Y-50000
X41000Y-53000
X42000Y-50000
X42000Y-53000
X43000Y-50000
X43000Y-53000
X44000Y-50000
X44000Y-53000
X45000Y-50000
X45000Y-53000
X46000Y-50000
X46000Y-53000
X55016Y-22000
X56000Y-22000
X58000Y-22000
X58984Y-22000
X55000Y-23500
X59000Y-23500
X70000Y-29000
X70000Y-30000
X70000Y-31000
X70000Y-32000
X70000Y-33000
X70000Y-34000
X70000Y-35000
X70000Y-36000
X70000Y-37000
X70000Y-38000
X73000Y-29000
X73000Y-30000
X73000Y-31000
X73000Y-32000
X73000Y-33000
X73000Y-34000
X73000Y-35000
X73000Y-36000
X73000Y-37000
X73000Y-38000
X72516Y-41000
X73500Y-41000
X52500Y-49000
X53287Y-49000
X37000Y-24000
X37000Y-28000
X62000Y-42000
X66000Y-42000
X32000Y-24000
X32000Y-25000
X32000Y-26000
X32000Y-27000
X32000Y-28000
X32000Y-29000
X32000Y-30000
X35000Y-24000
X35000Y-25000
X35000Y-26000
X35000Y-27000
X35000Y-28000
X35000Y-29000
X35000Y-30000
X52000Y-26500
X52787Y-26500
X54000Y-28000
X54000Y-29000
X54000Y-30000
X54000Y-31000
X54000Y-32000
X54000Y-33000
X54000Y-34000
X54000Y-35000
X54000Y-36000
X54000Y-37000
X54000Y-38000
X54000Y-39000
X54000Y-40000
X54000Y-41000
X54000Y-42000
X54000Y-43000
X54000Y-44000
X54000Y-45000
X54000Y-46000
X54000Y-47000
X60000Y-28000
X60000Y-29000
X60000Y-30000
X60000Y-31000
X60000Y-32000
X60000Y-33000
X60000Y-34000
X60000Y-35000
X60000Y-36000
X60000Y-37000
X60000Y-38000
X60000Y-39000
X60000Y-40000
X60000Y-41000
X60000Y-42000
X60000Y-43000
X60000Y-44000
X60000Y-45000
X60000Y-46000
X60000Y-47000
X39000Y-34000
X39000Y-35000
X39000Y-36000
X39000Y-37000
X39000Y-38000
X39000Y-39000
X39000Y-40000
X39000Y-41000
X39000Y-42000
X39000Y-43000
X39000Y-44000
X39000Y-45000
X39000Y-46000
X39000Y-47000
X45000Y-34000
X45000Y-35000
X45000Y-36000
X45000Y-37000
X45000Y-38000
X45000Y-39000
X45000Y-40000
X45000Y-41000
X45000Y-42000
X45000Y-43000
X45000Y-44000
X45000Y-45000
X45000Y-46000
X45000Y-47000
X69000Y-15500
X73000Y-15500
X67000Y-28500
X67787Y-28500
X48000Y-40000
X48000Y-41000
X48000Y-42000
X48000Y-43000
X48000Y-44000
X48000Y-45000
X48000Y-46000
X48000Y-47000
X51000Y-40000
X51000Y-41000
X51000Y-42000
X51000Y-43000
X51000Y-44000
X51000Y-45000
X51000Y-46000
X51000Y-47000
X70000Y-18000
X70000Y-19000
X70000Y-20000
X70000Y-21000
X70000Y-22000
X70000Y-23000
X70000Y-24000
X70000Y-25000
X70000Y-26000
X70000Y-27000
X73000Y-18000
X73000Y-19000
X73000Y-20000
X73000Y-21000
X73000Y-22000
X73000Y-23000
X73000Y-24000
X73000Y-25000
X73000Y-26000
X73000Y-27000
X38000Y-32000
X38787Y-32000
X75500Y-39500
X76287Y-39500
X44500Y-23500
X48500Y-23500
X56000Y-25500
X57921Y-25500
X29500Y-30000
X30287Y-30000
X49500Y-26500
X50287Y-26500
X35000Y-18500
X35984Y-18500
X66500Y-15500
X67287Y-15500
X44500Y-22000
X48500Y-22000
X69500Y-45000
X70287Y-45000
X30000Y-32000
X30000Y-33000
X30000Y-34000
X30000Y-35000
X30000Y-36000
X30000Y-37000
X30000Y-38000
X30000Y-39000
X30000Y-40000
X30000Y-41000
X30000Y-42000
X30000Y-43000
X30000Y-44000
X30000Y-45000
X30000Y-46000
X30000Y-47000
X36000Y-32000
X36000Y-33000
X36000Y-34000
X36000Y-35000
X36000Y-36000
X36000Y-37000
X36000Y-38000
X36000Y-39000
X36000Y-40000
X36000Y-41000
X36000Y-42000
X36000Y-43000
X36000Y-44000
X36000Y-45000
X36000Y-46000
X36000Y-47000
X62000Y-28000
X62000Y-29000
X62000Y-30000
X62000Y-31000
X62000Y-32000
X45000Y-32000
X45787Y-32000
X52500Y-52000
X53287Y-52000
X64500Y-18000
X64500Y-19000
X64500Y-20000
X64500Y-21000
X64500Y-22000
X64500Y-23000
X64500Y-24000
X64500Y-25000
X67500Y-18000
X67500Y-19000
X67500Y-20000
X67500Y-21000
X67500Y-22000
X67500Y-23000
X67500Y-24000
X67500Y-25000
X48000Y-31000
X48000Y-32000
X48000Y-33000
X48000Y-34000
X48000Y-35000
X48000Y-36000
X48000Y-37000
X48000Y-38000
X51000Y-31000
X51000Y-32000
X51000Y-33000
X51000Y-34000
X51000Y-35000
X51000Y-36000
X51000Y-37000
X51000Y-38000
X30000Y-24000
X30000Y-28000
T6
X40000Y-16713
X40000Y-17500
X40984Y-16713
X40984Y-17500
T7
X44900Y-18000
X44900Y-19772
X47400Y-18000
X47400Y-19800
T8
X26000Y-14000
X26000Y-15000
X26000Y-16000
X26000Y-17000
X26000Y-18000
X26000Y-19000
X26000Y-20000
X26000Y-21000
X26000Y-22000
X26000Y-23000
X26000Y-24000
X26000Y-25000
X26000Y-26000
X26000Y-27000
X26000Y-28000
X26000Y-29000
X26000Y-30000
X26000Y-31000
X26000Y-32000
X26000Y-33000
X26000Y-34000
X26000Y-35000
X26000Y-36000
X26000Y-37000
X26000Y-38000
X26000Y-39000
X26000Y-40000
X26000Y-41000
X26000Y-42000
X26000Y-43000
X26000Y-44000
X26000Y-45000
X26000Y-46000
X26000Y-47000
X26000Y-48000
X26000Y-49000
X26000Y-50000
X26000Y-51000
X26000Y-52000
X26000Y-53000
X64500Y-14500
X64500Y-15500
X41500Y-32000
X42500Y-32000
X67500Y-41000
X67500Y-42000
X81000Y-14000
X81000Y-15000
X81000Y-16000
X81000Y-17000
X81000Y-18000
X81000Y-19000
X81000Y-20000
X81000Y-21000
X81000Y-22000
X81000Y-23000
X81000Y-24000
X81000Y-25000
X81000Y-26000
X81000Y-27000
X81000Y-28000
X81000Y-29000
X81000Y-30000
X81000Y-31000
X81000Y-32000
X81000Y-33000
X81000Y-34000
X81000Y-35000
X81000Y-36000
X81000Y-37000
X81000Y-38000
X81000Y-39000
X81000Y-40000
X81000Y-41000
X81000Y-42000
X81000Y-43000
X81000Y-44000
X81000Y-45000
X81000Y-46000
X81000Y-47000
X81000Y-48000
X81000Y-49000
X81000Y-50000
X81000Y-51000
X81000Y-52000
X81000Y-53000
X47000Y-26000
X47000Y-27000
X47000Y-28000
X65000Y-44000
X66000Y-44000
X44500Y-26000
X44500Y-27000
X44500Y-28000
X70500Y-41000
X70500Y-42000
X69000Y-41000
X69000Y-42000
T9
X49752Y-14583
X50500Y-15764
X51248Y-14583
T10
X33000Y-14500
X35000Y-14500
T11
X38122Y-15646
X42862Y-15646
T0
M30
